<?xml version="1.0" encoding="UTF-8"?>
<svg id="Layer_1" xmlns="http://www.w3.org/2000/svg" version="1.1" viewBox="0 0 351.11 278.11">
  <!-- Generator: Adobe Illustrator 29.8.2, SVG Export Plug-In . SVG Version: 2.1.1 Build 3)  -->
  <defs>
    <style>
      .st0 {
        fill: #fff;
      }

      .st1 {
        fill: #58aa58;
      }

      .st2 {
        fill: #327d3d;
      }

      .st3 {
        fill: #4a3719;
      }
    </style>
  </defs>
  <path class="st0" d="M281.12,4.16c-14.62,8.14-27.07,19.62-41.69,27.8-24.78,13.86-51.66,21.65-79.56,26.25-33.83,5.57-73.15,3.51-106.39,18.77-8.16,3.74-42.03,24.64-45.78,31.22-1.9,3.34-2.1,6.24-1.09,10,13.87,37.23,26.02,75.09,39.52,112.45,2.68,7.43,11.73,36.66,15.49,40.5,1.17,1.19,3.48,1.43,4.53,2.98H4.15V4.16h276.97Z"/>
  <path class="st0" d="M346.11,160.14v113.99H68.14c13.8-8.52,24.68-20.07,39.33-28.17,51.16-28.27,108.25-20.57,161.85-38.12,27.65-9.05,57.5-26.05,76.78-47.7Z"/>
  <path class="st3" d="M63.48,272c-1.44-.66-2.64-1.77-3.38-3.17-4.27-8.08-11.6-31.62-13.97-38.18-13.49-37.36-25.65-75.23-39.52-112.45-1.02-3.76-.82-6.66,1.09-10,3.74-6.57,37.62-27.47,45.78-31.22,33.24-15.26,72.57-13.2,106.39-18.77,27.9-4.6,54.78-12.39,79.56-26.25,14.18-7.93,26.32-18.96,40.37-27.05.86-.5,1.85-.75,2.84-.75h.48c7.56,3.48,10,12.29,13.17,19.33,18.71,41.59,30.68,88.15,49.14,130.11.45,1.02.68,2.12.68,3.23v.17c0,2.07-.8,4.06-2.23,5.57-19.31,20.49-47.95,36.56-74.56,45.27-53.6,17.55-110.69,9.85-161.85,38.12-13.41,7.41-23.67,17.73-35.9,25.95-2.08,1.4-4.75,1.61-7.03.57l-1.07-.49ZM323.54,158.57c2.1-2.34,4.18-1.94,3.25-6.59-15.68-37.17-26.9-77.45-42.5-114.49-1.23-2.92-3.54-10.79-6.69-11.39-1.85-.35-8.93,7.43-10.52,8.49-61,40.75-108,36.13-173.67,47.5-21.28,3.69-34.07,8.42-52.17,20.65-2.46,1.66-16.8,12.31-17.13,13.94l46.05,133.46,2.99-.5c39.81-35,92.19-40.06,142.66-47.4,34.41-5,83.47-16.69,107.74-43.66Z"/>
  <path class="st0" d="M296.42,4.16h49.69v150.98c-18.85-42.36-30.88-89.55-49.82-131.65-1.58-3.5-2.97-7.45-4.91-10.95-2.08-3.76.75-8.37,5.04-8.37Z"/>
  <path class="st2" d="M323.54,158.57c-24.27,26.98-73.33,38.66-107.74,43.66-50.47,7.34-102.85,12.39-142.66,47.4l-2.99.5L24.11,116.67c.33-1.63,14.67-12.28,17.13-13.94,18.09-12.23,30.89-16.96,52.17-20.65,65.68-11.38,112.68-6.75,173.67-47.5,1.59-1.06,8.66-8.85,10.52-8.49,3.15.6,5.46,8.47,6.69,11.39,15.6,37.04,26.83,77.32,42.5,114.49.93,4.65-1.14,4.25-3.25,6.59ZM280.98,66.29c-11.64,1.56-19.27-3.22-29.11-7.99-23.71,10.52-47.82,20.96-73.74,24.86,15.19,8.84,29.52,14.49,39.81,29.67,13.19,19.48,13.95,39.59,6.89,61.5-1.75,5.44-9.18,13.14,1.67,12.84.62-.02.53-1.71,1.13-1.81,8.81-1.43,60.07-12.8,63.43-18.33.35-.58-.41-11.18-.02-13.45.08-.44,2.68-7.74,2.88-8.14,3.11-6.32,7.08-9.33,12.21-13.7l-25.15-65.46ZM135.14,92.16c-11.32-1.23-69.22,9.21-73.5,16.98-1.62,2.95.31,12.37-1.75,18.24-2.54,7.24-9.6,9.16-13.59,15.05l23.9,67.66c5.56-.31,9.21-2.95,15.22-1.71,9.01,1.85,7.09,12.38,19.46,7.03,8.24-3.56,18.2-8.17,27.26-10.78,10.4-3,21.17-5.63,32.01-6.49l-16.63-12.36c-22.61-19.86-30.35-41.5-26.14-70.12l13.77-23.49ZM170.29,105.98c-.92-.61-4.93-11.39-10.61-4.78-2.91,3.39.42,5.97-1.25,9.7-1.49,3.32-9.08,6.01-10.81,13.22-7.15,29.83,34.09,18.48,39.62,25.41,5.57,6.98-7.69,12.37-12.68,12.7-1.72.11-10.96-6.07-13.9.95-5.56,13.27,20.47,8.98,21.48,9.97.5.49-.59,10.94,8.07,8.56,6.69-1.84,2.34-9.82,3.09-12.83.61-2.46,8.46-7.49,9.46-13.71,1.52-9.55-4.64-18.11-13.58-20.55-6.5-1.78-30.47.33-27.87-9.73,1.37-5.29,9.91-5.93,14.31-5.71,4.9.24,10.68,6.17,13.28-.75,5-13.35-14.94-10.02-18.59-12.45Z"/>
  <path class="st1" d="M280.98,66.29l25.15,65.46c-5.14,4.37-9.1,7.38-12.21,13.7-.2.4-2.8,7.7-2.88,8.14-.4,2.27.36,12.88.02,13.45-3.36,5.53-54.62,16.91-63.43,18.33-.6.1-.51,1.79-1.13,1.81-10.85.3-3.42-7.4-1.67-12.84,7.06-21.92,6.3-42.03-6.89-61.5-10.28-15.19-24.61-20.83-39.81-29.67,25.92-3.91,50.03-14.35,73.74-24.86,9.84,4.77,17.46,9.55,29.11,7.99ZM271.77,108.5c-.84-.93-4.1-2.79-5.37-3.13-28.44-7.74-22.61,40.1,2.43,24.99,7.08-4.28,8.31-15.86,2.94-21.85Z"/>
  <path class="st1" d="M135.14,92.16l-13.77,23.49c-4.21,28.63,3.53,50.26,26.14,70.12l16.63,12.36c-10.84.87-21.61,3.49-32.01,6.49-9.06,2.62-19.02,7.22-27.26,10.78-12.37,5.35-10.45-5.18-19.46-7.03-6.01-1.23-9.66,1.41-15.22,1.71l-23.9-67.66c3.99-5.89,11.05-7.81,13.59-15.05,2.06-5.87.13-15.3,1.75-18.24,4.28-7.77,62.18-18.21,73.5-16.98ZM102.86,150.43c-1.23-1.46-13.21-3.64-15.17-3.28-8.63,1.57-11.49,13.99-7.4,21.34s11.72,9.87,19.01,5.32c7.98-4.98,9.26-16.63,3.56-23.38Z"/>
  <path class="st1" d="M170.29,105.98c3.65,2.42,23.6-.91,18.59,12.45-2.59,6.93-8.38.99-13.28.75-4.4-.22-12.94.42-14.31,5.71-2.6,10.06,21.37,7.96,27.87,9.73,8.94,2.44,15.1,11,13.58,20.55-.99,6.21-8.85,11.25-9.46,13.71-.75,3.02,3.6,11-3.09,12.83-8.66,2.38-7.57-8.07-8.07-8.56-1.01-.99-27.04,3.3-21.48-9.97,2.94-7.02,12.19-.83,13.9-.95,4.99-.33,18.25-5.72,12.68-12.7-5.53-6.93-46.77,4.42-39.62-25.41,1.73-7.21,9.32-9.9,10.81-13.22,1.67-3.72-1.66-6.31,1.25-9.7,5.68-6.61,9.69,4.16,10.61,4.78Z"/>
  <path class="st2" d="M271.77,108.5c5.37,6,4.14,17.58-2.94,21.85-25.03,15.11-30.87-32.73-2.43-24.99,1.27.34,4.53,2.2,5.37,3.13Z"/>
  <path class="st2" d="M102.86,150.43c5.7,6.74,4.43,18.39-3.56,23.38-7.29,4.55-14.72,2.38-19.01-5.32s-1.23-19.76,7.4-21.34c1.96-.36,13.94,1.82,15.17,3.28Z"/>
</svg>