<?xml version="1.0" encoding="UTF-8"?>
<svg id="Layer_1" xmlns="http://www.w3.org/2000/svg" version="1.1" viewBox="0 0 595.28 747">
  <!-- Generator: Adobe Illustrator 29.8.2, SVG Export Plug-In . SVG Version: 2.1.1 Build 3)  -->
  <defs>
    <style>
      .st0 {
        fill: #fbd9a5;
      }

      .st1 {
        fill: #cf9d6c;
      }

      .st2 {
        fill: #4d3418;
      }

      .st3 {
        fill: #b07e4d;
      }
    </style>
  </defs>
  <path class="st0" d="M321.35,172.75c.42-.15,1.4.12,2.12-.15,6.07-2.26,9.98-8.39,15.57-10.65,14.73-5.95,36.55,5.1,40.39,20.48,5.48,21.96-5.82,47.49-20.42,63.63-1.45,1.61-9.72,8.56-9.51,9.47.18.78,11.58,7.37,13.43,8.85,2.01,1.61,3.5,3.97,5.82,5.3l10.22,11.06c-23.14,18.09-52.44,33.32-43.21,67.42.08.29.38.53.65.65.04.18.01.46,0,.65-1.26,19.48,21.62,36.39,38.87,40.66,24.61,6.1,46.1,0,66.7-13.2.6-.38.48-1.7,1.8-1.29h.65c-.13,1.12,9.28,17.05,10.59,19.85,4.56,9.72,7.98,20.09,10.36,30.55-.06.03.15,1.01-.45,1.32-23.48,12.05-34.4,37-33.59,62.83-1.78-.01-1.83.78-2,2.26-1.79,16.11.85,28.77,7.89,42.9.14.29-.15,1.04,0,1.31-20.66,12.83-43.61,23.21-66.93,30.28-16.52,5.01-28.66,5.99-45.67,7.36-1.19.1-2.26,1.18-1.97-.99.82-27.11-6.36-56.4-27.84-74.6-21.96-18.6-54.61-19.65-73.25,3.97-1.04,1.32-3.3,5.86-3.84,6.32s-1.88.35-2.44.82c-3.29-5.92-8.36-10.62-12.32-16.16-2.41-3.37-5.15-7.54-7.2-11.13-2.37-4.17-8.55-15.7-9.53-19.83-.13-.54-.02-1.79.21-2.19.39-.7,12.76-4.4,15.07-5.37,27.61-11.61,49.87-32.42,50.5-64.16.04-2.18-1.44-1.09-1.38-2.9,8.05-35.33-23.54-48.16-52.73-47.15-16.78.58-29.05,1.96-46.13.03.89-5.13-.42-10.58.01-16.03.23-2.92,3.8-16.97,2.99-18.05-.48-.65-13.15-4.06-15.41-4.9-26.98-9.97-46.73-30.23-43.92-60.87.71-7.75,8.6-18.44,15.27-22.08,3.08-1.68,7.83-3.54,11.25-3.78,23.31-1.59,39.55,12.49,61.55-5.22,5.43-4.37,9.06-10.67,14.8-14.65,5.01-3.48,11.71-6.71,17.62-8.24.78,9.35,14.03,14.11,21.94,15.04,5.53.65,7.42-2.33,8.09,5,1.31,14.41-13.86,20.22-25.98,16.82-3.47-.97-7.64-4.82-9.74-5.31-9.52-2.2-10.82,8.34-1.94,13.72,12.07,7.31,30.07,5.86,40.72-3.37,1.52-1.32,6.57-7.59,7.32-7.78.85-.21,10.34,4.69,13.68,5.08,10.82,1.27,26.65-6.49,30.85-16.79,3.01-7.37-4.22-13.52-10-8.03-4.62,4.38-4.45,8.85-12.11,11.46-9.63,3.29-17.41-1.21-19.83-10.9-1.54-6.15,1.35-4.47,5.64-7.21,8.1-5.18,14.67-14.03,8.97-23.44,4.18.92,8.3.66,12.59,1.49,8.54,1.65,14.11,5.39,23.59,4.22,1.07-.13,2.63-.25,2.45-1.78,3.97.15,5.77-1.38,9.17-2.62Z"/>
  <path class="st1" d="M462.11,314.78c-1.59.14-1.94-.81-2.64.98-9.11,23.6-44.75,38.25-68.37,39.63-3.23.19-7.82.36-10.83-.68,1.64-2.15,4.18-7.03,2.66-9.53-3.32-5.46-10.26,4.27-12.45,6.61-1.01,1.08-2.58,3.27-2.75,3.42-.54.46-5.67,1.03-6.77,2.54-1.25-1.32-7.71-4.6-7.47-5.91,2.19-1.9,2.73-4.69,4.26-6.91,1.65-2.38,7.35-7.56,7.87-9.21.49-1.55-.54-3.97-2.16-4.46-6.97-2.14-10.74,7.16-15.01,10.28-.77.56-.92,1.02-2.22.72v-11.45c0-12.2,30.32-31.43,39.29-39.26,3.93-3.43,10.88-8.96,5.25-14.44-4.47-4.36-8.4.96-11.81,3.63l-10.22-11.06c-2.32-1.33-3.81-3.69-5.82-5.3-1.84-1.48-13.24-8.07-13.43-8.85-.21-.91,8.05-7.86,9.51-9.47,14.6-16.14,25.9-41.67,20.42-63.63-3.84-15.38-25.66-26.42-40.39-20.48-5.58,2.25-9.49,8.39-15.57,10.65-.72.27-1.7,0-2.12.15,10.38-10.93,5.05-39.35-11.55-40.54-23.08-1.66-18.08,42.39,2.38,43.16.19,1.53-1.38,1.65-2.45,1.78-9.48,1.17-15.06-2.57-23.59-4.22-4.29-.83-8.4-.57-12.59-1.49-1.37-2.25-6.51-6.59-9.01-7.05-.99-.18-1.94.48-2.92.33-8.58-1.34-14.41-1.18-22.91,1.02-8.9,2.31-23.68,10.51-22.78,21.41-5.91,1.53-12.61,4.76-17.62,8.24-5.74,3.99-9.38,10.28-14.8,14.65-22,17.72-38.24,3.63-61.55,5.22-3.42.23-8.17,2.09-11.25,3.78-6.66,3.64-14.56,14.33-15.27,22.08-2.81,30.64,16.94,50.89,43.92,60.87,2.26.83,14.93,4.25,15.41,4.9.81,1.08-2.76,15.13-2.99,18.05-.43,5.44.88,10.89-.01,16.03-4.1-.46-9.79-1.6-10.88,3.91-1.37,6.9,9.03,8.6,13.83,9.17,20.39,2.44,52.19-5.5,69.71,2.31,4.11,1.83,9.4,6.1,11.67,9.93s2.04,4.23-2.79,3.44-9.74-2.58-15.11-1.94-5.79,6.92-1.65,8.23c3.06.97,21.61,1.82,22.31,4.66.67,2.69-2.78,14.48-5.04,15.2-1.25.4-14.77-3.7-18.24-3.86-3.64-.17-7.4.99-6.07,5.43.92,3.08,12.13,5.32,15.42,6.2,1.76.47,3.87-.63,2.45,2.12-.48.94-3.15,2.85-4.25,3.93-4.79.3-9.22,3.22-13.9,4.76-58.26,19.22-88.93-13.1-96.01-68.66-1.01-7.95-.27-17.07-2.85-24.64-2.86-8.39-10.85-17.25-15.15-25.43-1.54-2.93-3.92-10.39-5.04-11.98-.75-1.06-2.01-.74-2.62-1.46-.72-.85-3.05-6.27-3.79-7.83-20-41.85-23.88-82.64-21.7-128.52,1.08-22.8,27.25-55.93,43.86-71.03,41.78-37.96,113.47-53.2,167.75-38.75,84.85,22.6,116.52,131.47,126.93,208.22,2.02,4.65,12.11,6.68,16.74,8.79,23.32,10.61,47.47,33.71,44.73,61.64ZM150.3,170.95c-21.03,3.37-12.17,45.22,7.64,42.99,22.18-2.5,15.34-46.67-7.64-42.99Z"/>
  <path class="st1" d="M437.23,536.67c7.88,14.57,19.68,19.38,34.36,24.88,5.44,2.04,11.71,4.23,17.36,5.22-.56.98-1.19,4.42-2.06,6.12-3.24,6.34-7.55,12.52-12.35,17.76-2.57,2.81-6.97,3.52-4.2,8.79,1.98,3.78,13.02,14.99,16.62,18.72,23.81,24.64,50.95,40.91,75.62,63.16,5.55,5.01,15.21,13.94,6.89,20.93,0-.06-.99.04-.66-.98.09-.27,4.78-3.45,1.63-4.27-8.72,5.21-19.52,7.23-29.54,8.44-63.78,7.67-119.05-15.75-161.97-61.75-5.05-5.41-9.77-12.26-14.71-17.37-4.06-4.2-6.56-4.37-12-5.68-15.64-3.77-33.16-4.55-48.27-10.65-.7-.28-3.3-1.29-2.91-2.3.74-1.89,5.32-4.24,4.57-7.55,3.22,1.87,5.78,1.46,8.16-1.34,3.82-4.5,8.69-19.86,8.87-25.5-.29,2.17.78,1.09,1.97.99,17.01-1.37,29.15-2.35,45.67-7.36,23.33-7.07,46.27-17.46,66.93-30.28Z"/>
  <path class="st3" d="M181.9,447c-.09,1.98,3.78,13.25,3.28,13.74-.09.09-1.79-.01-2.62.32-20.79,8.23-17.48,37.13-11.15,54.36,6.92,18.84,21.57,37.11,36.67,50.05-.42-7.09-.88-14.17-.68-21.3.25-8.98,1.82-15.66,3.32-24.2.31-1.77-.67-1.8,1.95-1.62-3.16,19.12-1.67,48.86,7.28,66.35,3.5,6.84,9.98,9.92,12.42.75-1.74-5.86-3.6-11.64-5.36-17.5-3.25-10.81-5.67-22.67-4.54-34.89.11-1.16.22-2.25,1.32-2.93-.34,6.07,1.07,9.09,3.57,14.43,5.57,11.9,15.48,26.56,26.99,33.24,11.95,6.94,30.22,8.59,42.31,1.29,5.47-3.3,9.35-8.48,12.9-12.96v.65l-1.96,17.67c-.88,2.47-2.59,6.87-4.58,8.51-.06.05-.89-1.02-1.22.39-.2.84-.31,3.06-.13,3.82s1.08.21,1.34.37c.74.43.62.62.65.65-1.27,1.67-.51,1.34,1.31,1.31.26.19.47.55.65.65.75,3.31-3.82,5.65-4.57,7.55-.4,1.01,2.2,2.01,2.91,2.3,15.11,6.1,32.63,6.88,48.27,10.65,5.43,1.31,7.94,1.48,12,5.68,4.94,5.11,9.66,11.96,14.71,17.37,42.92,46.01,98.19,69.42,161.97,61.75,10.01-1.2,20.82-3.22,29.54-8.44,3.15.82-1.54,4-1.63,4.27-.34,1.01.66.92.66.98-.47,4.07-15.22,12.72-19.2,14.51-23.76,10.73-59.06,10.09-84.36,5.57-48.02-8.58-88.95-36.79-117.34-75.77-1.71-2.34-10.1-16.15-11.01-16.53-3.6-1.49-13.41,1.13-17.85,1.53-51.43,4.57-101.19-19.21-135.86-55.94-27.58-29.22-51.15-72.87-62.48-110.98-.46-1.54-6.94-20.95-5.25-20.93,2.36.03,9.4,3.08,12.61,3.76,16.95,3.58,36.34,3.85,53.18-.48Z"/>
  <path class="st3" d="M62.69,140.28c-2.18,45.88,1.1,92.32,21.09,134.16.75,1.56,3.07,6.98,3.79,7.83.61.72,1.87.4,2.62,1.46,1.12,1.59,3.5,9.06,5.04,11.98,4.3,8.18,12.29,17.04,15.15,25.43,2.58,7.57,1.83,16.7,2.85,24.64,7.08,55.56,37.75,87.88,96.01,68.66,4.68-1.54,9.1-4.46,13.9-4.76-27.75,27.29-70.57,36.4-106.7,20.6-31.46-13.76-39.82-46.49-38.64-78.51.24-6.42,3.62-19.16,3.13-24.04-.94-9.32-10.73-29.18-14.07-39.65-13.09-41.07-18.34-97.98-6.39-140.21.31-1.09.48-7.96,2.22-7.59Z"/>
  <path class="st1" d="M532.16,493.47l.65,2.62c.11,2.58.06,5.27,0,7.85-2.81.24-3.17,3.27-4.58,4.91-14.46,16.81-36.18,20.37-54.83,7.69-12.65-8.61-22.35-29.03-24.86-43.87-.38-2.24.24-4.9-1.49-6.69,1.49-4.64,3.22-9.31,5.88-13.43,1.21-1.88,6.77-9.19,8.8-8.87.52.08,4.85,7.88,5.43,9.07,2.03,4.21,3.72,13.08,5.77,15.83,2.95,3.95,8.36,1.81,8.79-3.01.31-3.42-2.37-11.1-3.78-14.43-.84-1.97-7.88-13.38-7.32-13.95.48-.49,11.95-2.51,13.43-2.61,2.08-.13,10.65-.07,11.33,1.74.5,1.34.55,3.69,1.11,5.44.78,2.45,1.94,4.83,2.62,7.2,1.38,4.81,2.31,17.76,7.91,18.33,8.94.91,4.57-16.02,3.23-20.96-.22-.82-3.22-5.31-1.33-5.2,1.53.09,10.64,10.84,11.99,12.87,8.32,12.63,10.17,24.75,11.25,39.47Z"/>
  <path class="st1" d="M250.64,388.09c-.06,1.81,1.42.73,1.38,2.9-.63,31.74-22.89,52.56-50.5,64.16-2.31.97-14.67,4.67-15.07,5.37-.23.4-.34,1.65-.21,2.19.98,4.13,7.16,15.66,9.53,19.83,2.05,3.59,4.78,7.76,7.2,11.13,3.96,5.53,9.02,10.23,12.32,16.16-.67.58-2.4,7.19-2.62,8.51-2.62-.18-1.64-.15-1.95,1.62-1.5,8.54-3.07,15.22-3.32,24.2-.2,7.13.26,14.21.68,21.3-15.1-12.94-29.76-31.22-36.67-50.05-6.33-17.22-9.64-46.12,11.15-54.36.83-.33,2.52-.22,2.62-.32.5-.5-3.37-11.76-3.28-13.74,25.21-6.47,62.65-32.14,68.74-58.91Z"/>
  <path class="st3" d="M532.82,503.94c-.62,24.85-9.52,46.98-32.58,58.08-2.47,1.19-10.23,2.93-11.28,4.76-5.65-1-11.92-3.18-17.36-5.22-14.68-5.5-26.48-10.31-34.36-24.88-.15-.27.14-1.02,0-1.31l3.93-.65c.59,1.13,3.13,4.85,3.97,5.53,3.56,2.85,9.01-.3,9.18-4.56.09-2.15-5.19-13.02-6.28-16.67-4.32-14.52-5.52-38.89-.97-53.03,1.73,1.8,1.11,4.45,1.49,6.69,2.51,14.84,12.21,35.26,24.86,43.87,18.65,12.68,40.37,9.13,54.83-7.69,1.41-1.64,1.77-4.67,4.58-4.91Z"/>
  <path class="st1" d="M454.25,356.02c11.19,12.58,22.05,33.13,28.92,48.65,1.76,3.97,6.62,14.15,7.07,17.81.16,1.33-.03.83-.95.96-3.18.43-7.14-.27-10.48,0-1.43.12-12.76,2.26-13.43,2.61-2.37-10.47-5.79-20.83-10.36-30.55-1.31-2.79-10.73-18.73-10.59-19.85.25-2.06,8.81-7.89,9.77-15.47.2-1.54-.6-3.06.05-4.17Z"/>
  <path class="st1" d="M336.41,349.47c6.94,13.52,19.34,21.14,33.55,25.7,1.68.54,6.22,2.27,6.87,2.41,18.76,4.25,43.12-2.12,59.31-11.9.77-.47,2.24-.38,2.41-.5l5.24,10.47c-1.32-.41-1.2.9-1.8,1.29-20.6,13.2-42.09,19.29-66.7,13.2-17.25-4.27-40.13-21.19-38.87-40.66Z"/>
  <path class="st3" d="M47.67,147.87c-1.91,1.35-10.31-5.83-11.75-7.53-14.18-16.77-1.01-43.3,21.09-40.07,1.56.23,8.46,2.25,8.29,3.98-.12,1.22-6.42,10.98-7.56,13.42-2.24,4.82-4.86,11.88-6.59,16.98-.73,2.15-2.92,12.82-3.48,13.22Z"/>
  <path class="st3" d="M462.11,314.78c-2.73,27.88-40.97,49.56-66.46,51.05-2.99.17-22.02-.53-22.58-2.95-.34-1.48,6.27-6.95,7.2-8.17,3.01,1.04,7.6.87,10.83.68,23.62-1.38,59.26-16.02,68.37-39.63.69-1.8,1.05-.84,2.64-.98Z"/>
  <path class="st3" d="M357.91,81.01c-2.58,1.55-2.62-1.57-3.66-3-6.56-9.06-15.72-16.71-22.11-25.03-.36-.47-1.52-1.22-.97-1.96.37-.51,6.36-1.98,7.52-2.02,12.89-.43,23.91,13.44,21.78,25.74-.14.82-2.27,6.09-2.56,6.26Z"/>
  <path class="st3" d="M438.54,365.18c2.51-1.82,6.24-4.66,8.95-6.76.96-.74,1.98-3.28,3.51-4.02,3.13-1.52,2.38.64,3.26,1.62-.65,1.11.15,2.63-.05,4.17-.96,7.58-9.53,13.41-9.77,15.47h-.65l-5.24-10.47Z"/>
  <path class="st1" d="M431.34,490.2c.42,13.34,3.56,32.63,9.82,44.51l-3.93.65c-7.04-14.13-9.68-26.8-7.89-42.9.16-1.48.22-2.27,2-2.26Z"/>
  <path class="st3" d="M532.82,496.09l-.65-2.62c0,.13.59,1.22.65,2.62Z"/>
  <path class="st1" d="M336.41,348.82c-.27-.13-.58-.37-.65-.65.3.1.59.34.65.65Z"/>
  <path class="st2" d="M322.66,573.32c-.17,5.64-5.04,21-8.87,25.5-2.37,2.8-4.93,3.21-8.16,1.34-.18-.11-.39-.46-.65-.65-.18-.13-.84-.9-1.31-1.31-.04-.03.08-.23-.65-.65v-4.58c1.99-1.64,3.71-6.04,4.58-8.51,1.92-5.42,2.4-10.13,2.81-15.85.08-1.12,1.42-2.09-.85-1.82v-.65c.65-.82,1.13-1.55,1.31-2.62.12-.71.03-1.84,0-2.62-.75-18.12-9.86-40.6-23.56-52.7-.84-.74-6.48-5.38-6.89-5.55-1.21-.51-1.1.64-.82,1.47,1.65,4.78,9.24,18.33,1.62,20.92-7.27,2.47-8.52-9.64-10.83-14.99-.95-2.2-4.96-10.85-6.34-11.99-2.49-2.06-17.12.08-20.44,1.8-.59.3-1.07-.15-.85,1.14.11.62,6.35,8.25,7.5,10.19,2.46,4.15,8.32,15.23,4.34,19.28-6.8,6.93-10.2-8.17-11.89-11.73-.96-2.03-7.23-12.08-9.39-11.53-.84.21-5.29,7.78-5.9,9.17-1.7,3.85-3.37,9.56-3.61,13.74-1.11.68-1.22,1.77-1.32,2.93-1.13,12.22,1.28,24.08,4.54,34.89,1.76,5.86,3.62,11.64,5.36,17.5-2.44,9.17-8.92,6.09-12.42-.75-8.96-17.49-10.44-47.24-7.28-66.35.22-1.32,1.95-7.93,2.62-8.51.55-.48,1.91-.37,2.44-.82s2.8-5,3.84-6.32c18.64-23.62,51.29-22.57,73.25-3.97,21.48,18.19,28.67,47.49,27.84,74.6Z"/>
  <path class="st2" d="M273.56,171.44c5.7,9.41-.87,18.26-8.97,23.44-4.29,2.74-7.18,1.06-5.64,7.21,2.42,9.69,10.19,14.18,19.83,10.9,7.66-2.61,7.49-7.08,12.11-11.46,5.78-5.48,13,.66,10,8.03-4.2,10.3-20.04,18.06-30.85,16.79-3.34-.39-12.84-5.29-13.68-5.08-.75.19-5.8,6.47-7.32,7.78-10.64,9.22-28.65,10.68-40.72,3.37-8.88-5.38-7.58-15.92,1.94-13.72,2.11.49,6.27,4.33,9.74,5.31,12.12,3.4,27.29-2.41,25.98-16.82-.66-7.33-2.56-4.35-8.09-5-7.91-.94-21.16-5.69-21.94-15.04-.91-10.9,13.87-19.1,22.78-21.41,8.5-2.2,14.33-2.36,22.91-1.02.99.15,1.93-.51,2.92-.33,2.49.46,7.64,4.8,9.01,7.05Z"/>
  <path class="st2" d="M321.35,172.75c-3.39,1.24-5.19,2.77-9.17,2.62-20.47-.77-25.46-44.81-2.38-43.16,16.6,1.19,21.93,29.61,11.55,40.54Z"/>
  <path class="st2" d="M150.3,170.95c22.98-3.68,29.82,40.49,7.64,42.99-19.81,2.23-28.67-39.62-7.64-42.99Z"/>
  <path class="st1" d="M223.8,530.12c.24-4.17,1.91-9.89,3.61-13.74.61-1.39,5.07-8.96,5.9-9.17,2.16-.54,8.43,9.51,9.39,11.53,1.69,3.56,5.1,18.66,11.89,11.73,3.98-4.06-1.88-15.14-4.34-19.28-1.15-1.94-7.39-9.57-7.5-10.19-.22-1.29.27-.84.85-1.14,3.32-1.72,17.95-3.86,20.44-1.8,1.38,1.14,5.39,9.79,6.34,11.99,2.31,5.34,3.57,17.46,10.83,14.99,7.61-2.59.03-16.14-1.62-20.92-.29-.83-.39-1.98.82-1.47.41.17,6.05,4.81,6.89,5.55,13.7,12.09,22.81,34.58,23.56,52.7-1.02.27-.98,2.41,0,2.62-.18,1.07-.66,1.8-1.31,2.62-3.54,4.48-7.43,9.66-12.9,12.96-12.09,7.3-30.36,5.64-42.31-1.29-11.51-6.68-21.41-21.34-26.99-33.24-2.5-5.34-3.92-8.35-3.57-14.43Z"/>
  <path class="st1" d="M309.56,566.78c2.26-.26.93.7.85,1.82-.41,5.72-.89,10.43-2.81,15.85l1.96-17.67Z"/>
  <path class="st1" d="M303.02,592.96v4.58c-.27-.15-1.16.4-1.34-.37s-.07-2.99.13-3.82c.33-1.41,1.15-.34,1.22-.39Z"/>
  <path class="st1" d="M304.98,599.5c-1.82.03-2.58.36-1.31-1.31.47.41,1.13,1.18,1.31,1.31Z"/>
  <path class="st3" d="M310.87,563.5c-.98-.21-1.02-2.35,0-2.62.03.78.12,1.91,0,2.62Z"/>
  <path class="st2" d="M238.2,17.63c21.85,1.33,49.22,7.43,68.53,18.21,2.31,1.29,10.14,7.16,11.74,7.31,2.71.26,2.83-1.4,4.63-2.51,29.26-18.07,60.06,17.05,47.17,43.88-.99,2.06-5.7,7.91-5.57,9.25.09.92,7.06,12.43,8.19,14.69,18.72,37.22,32.23,78.16,37.41,119.68.45,3.57-.76,8.49,2.12,10.32s8.55,3.36,11.96,5.06c31.66,15.8,61.35,48.79,45.45,86.49-1.7,4.02-6.07,9.38-7.36,12.95s1.26,4.51,2.82,6.94c14.57,22.75,26.57,43.98,36.3,69.11.63,1.63,1.31,5.27,2.13,6.36s11.5,6.42,13.99,8.27c37.62,27.87,35.58,104.28-1.32,132.75-4.62,3.56-14.51,7.61-17.24,10.26s-7.06,11.43-9.65,15.22c-1.14,1.67-4.68,4.79-4.51,6.62,5.28,6.2,11.37,12.37,17.37,18.05,20.63,19.53,43.3,35,64.81,53.02,15.53,13.01,26.25,26.62,8.56,44.52-39.88,40.33-132.11,22.21-175.51-3.92-28.05-16.89-50.72-40.23-68.83-67.34-11.73.49-22.79,1.38-34.58.54-109.15-7.81-173.34-109.8-196.24-207-4.74-5.31-10.94-9.07-15.54-14.57-17.27-20.64-19.9-53.45-18.34-79.17.26-4.22,2.24-11.9,1.84-15.54-.58-5.28-6.99-17.75-9.06-23.73-15.87-45.95-21.18-92.96-14.39-141.39-.45-2.31-5.43-3.25-7.42-4.37-35.1-19.71-20.27-74.19,21.41-69.84,3.52.37,13.27,5.22,14.14,4.85,1.81-.76,8.16-9.97,10.16-12.14,37-40.32,86.1-59.58,140.44-62.83,4.33-.26,10.08-.26,14.4,0ZM62.52,141.42c-.93,2.82-1.74,5.37-2.05,6.45-11.95,42.23-6.7,99.15,6.39,140.21,3.34,10.47,13.14,30.33,14.07,39.65.49,4.88-2.89,17.62-3.13,24.04-1.18,32.02,7.18,64.76,38.64,78.51,36.13,15.8,78.95,6.69,106.7-20.6,1.1-1.09,3.77-2.99,4.25-3.93,1.42-2.74-.69-1.65-2.45-2.12-3.29-.88-14.5-3.12-15.42-6.2-1.33-4.44,2.42-5.59,6.07-5.43s17,4.26,18.24,3.86c2.26-.72,5.71-12.51,5.04-15.2-.7-2.84-19.25-3.7-22.31-4.66-4.13-1.31-3.86-7.58,1.65-8.23s10.21,1.14,15.11,1.94,4.96.22,2.79-3.44-7.57-8.1-11.67-9.93c-17.52-7.81-49.32.13-69.71-2.31-4.8-.58-15.2-2.28-13.83-9.17,1.09-5.5,6.78-4.37,10.88-3.91,17.08,1.94,29.35.55,46.13-.03,29.19-1.01,60.78,11.83,52.73,47.15-6.1,26.77-43.53,52.44-68.74,58.91-16.84,4.32-36.22,4.06-53.18.48-3.21-.68-10.25-3.73-12.61-3.76-1.69-.02,4.79,19.39,5.25,20.93,11.34,38.11,34.9,81.77,62.48,110.98,34.68,36.73,84.44,60.51,135.86,55.94,4.44-.4,14.25-3.02,17.85-1.53.92.38,9.31,14.19,11.01,16.53,28.39,38.99,69.32,67.19,117.34,75.77,25.3,4.52,60.61,5.16,84.36-5.57,3.98-1.8,18.73-10.44,19.2-14.51,8.32-6.98-1.34-15.92-6.89-20.93-24.67-22.25-51.81-38.52-75.62-63.16-3.61-3.73-14.64-14.94-16.62-18.72-2.77-5.27,1.63-5.98,4.2-8.79,4.8-5.25,9.11-11.42,12.35-17.76.87-1.7,1.5-5.14,2.06-6.12,1.05-1.83,8.81-3.57,11.28-4.76,23.06-11.1,31.96-33.23,32.58-58.08.06-2.58.11-5.27,0-7.85-.06-1.39-.64-2.48-.65-2.62-1.08-14.73-2.94-26.84-11.25-39.47-1.34-2.04-10.46-12.79-11.99-12.87-1.89-.11,1.11,4.38,1.33,5.2,1.34,4.94,5.71,21.88-3.23,20.96-5.6-.57-6.53-13.52-7.91-18.33-.68-2.37-1.84-4.75-2.62-7.2-.55-1.74-.6-4.09-1.11-5.44-.68-1.81-9.25-1.88-11.33-1.74-1.48.1-12.96,2.12-13.43,2.61-.55.57,6.49,11.98,7.32,13.95,1.41,3.34,4.09,11.02,3.78,14.43-.43,4.82-5.84,6.97-8.79,3.01-2.05-2.75-3.74-11.62-5.77-15.83-.58-1.2-4.9-8.99-5.43-9.07-2.04-.32-7.59,6.99-8.8,8.87-2.66,4.12-4.38,8.79-5.88,13.43-4.55,14.13-3.35,38.5.97,53.03,1.09,3.65,6.36,14.51,6.28,16.67-.17,4.26-5.61,7.41-9.18,4.56-.84-.67-3.37-4.4-3.97-5.53-6.26-11.88-9.4-31.16-9.82-44.51-.81-25.83,10.12-50.78,33.59-62.83.61-.31.39-1.29.45-1.32.67-.35,12-2.49,13.43-2.61,3.34-.27,7.3.42,10.48,0,.92-.13,1.12.37.95-.96-.45-3.66-5.32-13.85-7.07-17.81-6.87-15.52-17.73-36.06-28.92-48.65-.88-.99-.13-3.14-3.26-1.62-1.53.74-2.55,3.28-3.51,4.02-2.71,2.1-6.44,4.95-8.95,6.76-.17.12-1.64.04-2.41.5-16.19,9.78-40.55,16.14-59.31,11.9-.64-.15-5.19-1.87-6.87-2.41-14.2-4.56-26.61-12.18-33.55-25.7.01-.2.04-.47,0-.65-.07-.31-.35-.55-.65-.65-9.23-34.09,20.07-49.33,43.21-67.42,3.41-2.67,7.34-7.98,11.81-3.63,5.63,5.48-1.32,11.01-5.25,14.44-8.97,7.83-39.29,27.07-39.29,39.26v11.45c1.3.3,1.45-.16,2.22-.72,4.26-3.12,8.04-12.41,15.01-10.28,1.62.5,2.64,2.91,2.16,4.46-.52,1.65-6.22,6.82-7.87,9.21-1.53,2.21-2.07,5.01-4.26,6.91-.24,1.31,6.22,4.58,7.47,5.91,1.1-1.52,6.23-2.08,6.77-2.54.18-.15,1.74-2.35,2.75-3.42,2.2-2.35,9.13-12.08,12.45-6.61,1.52,2.5-1.02,7.38-2.66,9.53-.93,1.22-7.54,6.69-7.2,8.17.56,2.42,19.59,3.12,22.58,2.95,25.49-1.49,63.73-23.17,66.46-51.05,2.74-27.93-21.41-51.03-44.73-61.64-4.63-2.11-14.73-4.13-16.74-8.79-10.42-76.75-42.09-185.62-126.93-208.22-54.28-14.46-125.97.79-167.75,38.75-16.61,15.09-36.53,41.19-43.42,66.52ZM357.91,81.01c.29-.17,2.42-5.44,2.56-6.26,2.13-12.31-8.89-26.17-21.78-25.74-1.17.04-7.15,1.5-7.52,2.02-.54.74.61,1.49.97,1.96,6.38,8.32,15.55,15.97,22.11,25.03,1.04,1.44,1.08,4.55,3.66,3ZM47.67,147.87c.56-.4,2.75-11.07,3.48-13.22,1.72-5.1,4.34-12.16,6.59-16.98,1.14-2.45,7.44-12.2,7.56-13.42.17-1.72-6.73-3.75-8.29-3.98-22.1-3.24-35.28,23.3-21.09,40.07,1.44,1.7,9.84,8.89,11.75,7.53Z"/>
</svg>