<?xml version="1.0" encoding="UTF-8"?>
<svg id="Layer_1" xmlns="http://www.w3.org/2000/svg" version="1.1" viewBox="0 0 1536 1024">
  <!-- Generator: Adobe Illustrator 29.8.2, SVG Export Plug-In . SVG Version: 2.1.1 Build 3)  -->
  <defs>
    <style>
      .st0 {
        fill: #a97a48;
      }

      .st1 {
        fill: #26531b;
      }

      .st2 {
        fill: #301705;
      }

      .st3 {
        fill: #bc8448;
      }

      .st4 {
        fill: #9c682e;
      }

      .st5 {
        fill: #f5d29d;
      }

      .st6 {
        fill: #bf8d58;
      }

      .st7 {
        fill: #f8d9a7;
      }

      .st8 {
        fill: #aa723c;
      }

      .st9 {
        fill: #f5d39e;
      }

      .st10 {
        fill: #34732f;
      }

      .st11 {
        fill: #432a0f;
      }

      .st12 {
        fill: #5a9e4c;
      }

      .st13 {
        fill: #c79661;
      }

      .st14 {
        fill: #fcdfb1;
      }
    </style>
  </defs>
  <path class="st11" d="M633,693h263l-18.04-17.49c-10.86-12.06-20.81-25.07-28.48-39.49-4.55-8.55-9.95-27.17-14.04-32.96-3.03-4.27-14.58-12.1-19.46-17.54-21.94-24.45-29.93-46.97-11.16-76.21,5.42-8.44,26.91-22.12,36.8-23.2s19.37,2.57,28.06,7.72c3.59,2.13,16.89,13.9,18.03,14.02,2.26.24,9.06-11.37,20.56-9.62,18.13,2.75,17.62,36.08,18.51,49.51l30.73,28.99,38.06-39.75c1.11-2.63-8.68-8.69-11.08-10.97-33.78-31.98-47.54-67.95-39.2-114.25,6.15-34.14,13.47-72.58,26.24-104.76,2.49-6.27,14.87-29.3,15.31-32.76.35-2.79-5.5-11.43-6.56-16.02-7.19-31.16,19.1-66.03,52.74-56.74,4.56,1.26,11.64,6.87,14.41,6.52,2.45-.32,19.61-10.81,24.24-12.87,83.23-37.09,195.59-14.31,262.37,46.34,2.38,2.16,12.73,14.18,13.7,14.4,1.45.33,14.24-8.43,19.07-9.6,18.45-4.48,36.69,4.02,47.03,19.41,19.03,28.31,7.72,68.5-26.82,76.33,3.74,15.65,6.66,31.68,8.87,47.63,5.57,40.1,7.08,80.73,12.16,120.84,13.88,109.51,66.98,208.39,47.7,323.74-.64,3.84-4.16,12.35-3.74,15.22.85,5.81,29.43,24.45,31.58,31.51,1.58,5.19.91,32.62.5,39.6-.16,2.65-.76,4.92-1.05,7.45-1.14,9.91.43,13.67-9,19-.29.1-.69-.09-1,0-17.16,5.15-36.95,1.01-54,4-.33.05-.67-.03-1,0v73h-15v-73h-57l1,73h-16v-73H187v73h-16v-73.01c-6.31.12-12.69-.15-19,0-1.66.04-3.34-.04-5,0-.67.02-1.33-.01-2,0-4.06.83-29.91-1.1-31.01,0-2.55,2.55,1.96,63.44,0,72.01v1h-15c.51-5.35,3.15-73-.5-73h-43c-2.94,0-11.2-2.46-14.19-3.81-6.91-3.12-8.66-6.05-9.34-13.65-1.51-16.87,1.49-36.07.18-53.03,4-4.46,29.38-26.68,29.88-30.07s-4.84-17.46-5.74-22.22c-19.55-102.97,23.62-193.26,47.22-289.22,13.54-55.06,10.8-114.27,22.81-171.19.94-4.48,8.02-27.78,7.64-29.24-.23-.89-13.44-4.84-16.88-7.13-37.3-24.82-19.29-90.06,26.49-91.44,12.98-.39,21.46,6.07,31.42,13,58.73-75.23,175.41-96.79,264.01-70.49,6.24,1.85,34.73,14.32,36.7,14.3,1.27-.01,14.01-9.96,22.77-10.85,34.52-3.51,56.25,25.28,51.09,58.09-1.22,7.77-6.22,13.07-8.4,20.22,16.67,28.23,27.4,59.57,34.57,91.5,1.71,7.59,1.6,17.14,3.75,24.25,1.99,6.59,7.19,13.74,9.55,21.45,12.22,39.92-2.06,78.26-25.61,110.43-3.43,4.69-16.14,16.71-15.43,21.53.42,2.86,14.79,13.03,18.03,16.05,37.57,35.01,77.23,89.18,66.99,143.51ZM411,193c.74-2.82-5.02-2.57-6.68-2.82-26.12-3.98-52.09-4-78.32-1.16l1.99,2.99c-42.95,5.12-87.83,18.9-121.54,49.01-5.37,4.8-16.53,16.27-20.92,23.04-3.66,5.65-3.95,15.69-13.55,14.95-6.66-5.69-7.99-12.68-12.95-16.55-17.14-13.39-44.38,1.76-46.94,22.17-1.98,15.78,7.5,38.75,26.32,36.32,6-.77,4.39-1.92,12.56-.94,2.15,2.24,4.11,6.2,3.67,9.34-.4,2.9-4.46,14.45-5.67,18.66-.08.28-.71.97-1,2-2.59.13-4.46,8.74-4.81,10.81-.47,2.78.85,3.98.81,4.19-.06.32.06.68,0,1-2.46-.48-2.21,1.09-2.68,2.77-13.36,47.06-12.1,102.27-18.32,149.23-4.4,33.23-17.13,63-26.49,95.01-6.08,20.78-11.92,41.83-16.51,62.99-10.09,46.55-19.22,104.31-8,151,.7,2.91,1.67,8.2,2.9,10.62.43.85-.59,1.76,1.58,1.37l117.07-107.01c.69-.77.32-1.22,0-1.97-.64-1.53-13.67-14.96-16.37-18.7-5.28-7.31-9.86-15.42-14.19-23.31-1.27-6.37-9.69-20.44-.74-24.26,9.47-4.04,14.73,16.17,18.57,22.93,7.81,13.78,17.35,29.03,31.17,37.33,16.66,21.8,92.21,34.82,119,36,1.99.09,4.01-.06,6,0-.53,3.31,2.88,1.86,6,2,11.64.51,35.81,1.17,45.02-2.36,1.43-.55,5.93-2.59,6.52-3.63.84-1.49-8.33-10.71-10.07-11.98-5.11-3.75-16.01-4.53-13.31-12.35,2.89-8.4,22.2,2.89,26.36,6.3,6.38,5.24,11.22,17.92,18.55,5.56,3.21-5.41-10.58-17.97-14.6-21.51-4.63-4.07-10.8-4.14-9.22-11.32,2.25-10.22,19.37,2.8,23.28,6.27,2.12,1.88,11.65,15.41,12.12,8.37.79-11.8-20.38-28.69-30.27-33.22-24.96-11.42-56.52-8.83-80.73-21.26-24.2-12.42-37.29-32.56-48.36-56.6-.52-1.12-2.06-1.19-2.25-1.98-2.52-10.62,8.26-11.2,14.97-6.28,2.36,13.29,23.43,39.09,34.69,46.81,29.6,20.32,63.59,12.58,92.06,28.5,3.43,1.92,12.66,10.75,16.98,11.63,6.24,1.27,34.5.76,41.75.03,7.5-.76,4.15-1.82,6.65-5.32,11.84-16.58,21.83-25.93,39.54-36.49,1.95-1.16,11.82-4.77,12.15-5.34,2.91-5.05-7.7-46.01-3.84-54.34,3.35-1.59,6.55-.89,10.02-.49,1.58,8.85,5.07,18.42,6.38,28.2.48,3.62.57,20.72,1.63,21.8,1.28,1.31,35.34-12.8,29.57,5.05-1.72,5.33-6.8,3.05-9.87,3.99-26.92,8.28-67.66,21.63-77.01,53.16-.63,2.13-2.57,16.42.79,15.79,2.67-.49,18.25-30.25,30.95-28.01,3,.53,4.98,3.9,3.84,6.71-.75,1.85-11.66,11.21-14.68,15.4-1.82,2.52-10.01,15.45-8.5,17.8.71,1.1,12.73,3.88,14.91,2.61,1.12-.65,11.12-17.35,14.96-21.04,2.47-2.38,7.03-6.62,10.55-6.55,16.82.3-12.9,24.78-11.52,31.08,2.94,2.82,34.03-2.53,38.99-5.99,17.42-4.16,30.64-9.46,43-23,14.83-16.25,15.97-27.61,12.72-49.22-7.18-47.87-53.72-94.16-91.72-120.78.32-4.27-.7-7.51,2-11.5,1.92-2.84,4.6-2.78,5.65-3.85,7.4-7.53,16.44-17.01,22.35-25.65,2.68-.56,6.96-6.97,8.22-9.28,17.1-31.35,23.05-66.53,3.89-98.35-.77-1.27,1.21-3.12-3.1-2.37-1.66-17.21-6.02-36.43-11-53,1.95-.93.38-3.18.01-4.5-9.59-34.86-27.49-67.62-52.52-93.49-.26-.27-4.09-3.69-4.49-2.01-22.71-20.1-56.11-36.16-86-41ZM1186,195c.56-3.02-1.53-1.93-3.45-2-39.96-1.48-74.15-.26-110.91,17.14l-6.64,4.86c-36.76,20.11-59.12,50.99-77,88-14.15,29.28-17.74,52.02-24.07,83.24-7.46,36.76-15.81,62.41,4.06,97.49.43.76,1.84,6.88,4.01,5.26,4.52,7.74,17.64,21.79,24.51,27.99,4.18,3.77,19.98,13.76,21.59,17.41,3.14,7.08-5.53,35.46-6.99,45.27-.8,5.38-1.44,10.94-2.11,16.34-3.33-.91-1.78,4.05-2,7-.02.33.03.67,0,1-4.24,12.52-4.01,26.24-5.08,39.42-.9,11.09-2.3,22.69-2.85,34.25-.09,1.89-.36,3.58,1.94,4.33.09,2.78-.43,6.5,0,9,.05.27.8.64,1,1,.15.26-.16.88,0,1h155v-1c9.79-2.53,20.35-5.55,29-11,13.3-3.82,41.56-8.56,51.56-16.96,4.76-4,14.51-33.19,17.25-40.77.28-.77,0-2.95,1.2-6.27,1.5-4.18,6.55-19.05,9.61-20.89,5.68-3.4,11.8.74,11.21,7.11-.88,9.36-12.12,38.03-16.43,47.66-17.87,39.9-40.09,33.3-76.59,45.21-16.6,5.42-53.94,25.52-56.7,45.49-3.01,21.87,10.62,1.54,15.89-3.1,1.84-1.62,14.01-10.76,15.27-11.2,4-1.41,11.85-.88,10.56,4.94-1.1,4.96-26.56,20.47-28.66,30.51-.62,2.98,8.1,7.07,10.46,7.26,4.62.37,9.52-8.07,13.38-11.51,5.11-4.55,18.06-15.1,24.51-14.52,4.54.4,7.58,3.63,5.01,8.04-1.6,2.74-25.2,13.49-26.39,21.63,3.72,5.23,9.56,4.03,14.89,4.35,20.66,1.25,46.71-4.17,68.18-8.32,32.89-6.35,62.82-14.16,86.82-37.68,19.37-18.99,26.89-37.08,34.71-62.79,1.71-5.61,4.98-27.84,9.41-30.1.61-.31,9.15,3.13,9.66,4.1,1.55,2.98-.72,11.18-.78,14.79-9.52,28.52-11.15,48.57-30.59,73.91-2.46,3.21-16.03,16.62-16.3,17.8-.81,3.45,17.36,18.02,20.89,21.29,18.68,17.31,37.34,34.67,56,52,.37.35,1.09,1.16,2,2,.77.71,1.41,1.46,2,2,1.15,3.3,4.68,5.97,8,7,.34.32.65.69,1,1,.99.87,2.62,3.96,4.52,3.78,1.23-.11,5.09-5.37,2.48-6.78.3-.65.88-1.62,1-2,6.3-19.23,5.39-48.29,4.06-68.56-.12-1.86.21-3.73-2.06-4.44-1.71-24.78-6.25-49.62-11-74,1.85-.97.82-3.5.56-5.03-8.51-50.73-29.08-100.07-36.59-150.49-.28-1.87,1.24-4.05-1.97-3.48-.8-5.79-3-16.24-3-21.5v-16c0-3.38-2.45-13.68-3-18.5,2.56-1.31,1.24-8.87.99-11.49-2.32-23.95-5.17-51.63-9.95-75.07-.44-2.17.94-3.37-2.03-1.45-2.53-15.73-4.14-31.78-9.74-46.71-.24-2.19,2.3-5.3,4.74-5.29.4.34,9.83.19,10.56.08.38-.06,6.09-2.77,6.85-3.17,39.12-20.26,4.95-84.96-27.88-56.89-2.25,1.93-11.26,13.48-12.52,15.98-15.16.57-9.87-10.02-12.92-17.58-.67-1.66-15.53-15.74-18.07-17.93-34.58-29.85-86.27-50.51-132.01-53.49ZM493.21,209.83l38.29,35.17c7.65-16.61-4.2-42.3-24.02-42.08-3.36.04-16.82,2.83-14.27,6.91ZM1031.94,218.07c-19.7-8.75-38.33,9.51-36.92,29.42.21,2.89,1.08,10.6,4.29,7.25,10.32-10.8,18.93-24.31,31.75-33.18l.88-3.49ZM992,609c2.3-17.74,5.85-35.25,7.99-53l-31.05,32.44c-1.44,7.22-1.5,10.75-10.21,10.4l-43.59-40.49c-5.93-6.63-3.64-40.74-9.27-44.22-6.64-4.1-10.83,15.95-12.84,18.39-2.7,3.28-8.84,2.29-10.47-.54-2.12-3.69-1.1-7.71-4.03-12.03-1.3-1.91-16.12-13.91-18.25-14.96-3-1.47-19.37-5.8-21.28-4-.23,7.29,32.54,26.13,15.04,31.56-6.86,2.13-6.52-3.24-9.99-6.12-3.18-2.64-15.5-13.28-17.77-14.44-4.87-2.49-10.11,2.25-9.14,6.27,1.53,6.33,25.68,18.31,21.66,31.01-4.54,14.35-23.19-15.38-28.29-16.32-2.01-.37-1.34.25-1.51,1.49-2.49,17.49,14.02,36.82,25.48,48.55,3.71,3.8,12.34,9.07,14.97,13.03,4.98,7.5,9.11,23.91,14.38,33.62,6.23,11.47,14.3,21.83,23.17,31.33,6.17,6.62,29.67,29.25,37.17,31.33,5.12,1.42,19.77,1.46,26.28,1.71,5.62.21,30.03,1.09,33.55-.04.89-.28,2.82-.81,3.03-1.68l4.97-83.32ZM625,708c-11.01,13.78-18.03,22.24-34.64,29.86-29.83,13.68-113.86,27.37-123.9-16.81-1.54-6.76,2.47-11.47-5.45-12.05-7.51-.55-15.44.4-22.99,0,7.07,13.46,6.17,25.86-1.01,38.99-18.37,14.37-18.93,20.08-44.98,25.52-39.09,8.17-91.89.32-131.22-9.82-19.08-4.92-37.01-11.66-53.53-22.58-2.66-.4-6.14,4.13-8.26,5.87-.87.72-1.42,1.5-2,2-.36.3-.65.7-1,1-49.08,42.19-94.62,88.41-143.57,130.92-1.92,1.98-1.94,2.97-.43,5.08.85,1.19,3.45,3.08,4,1,1.01.25,2.15-.01,3,1l-.52,1h1399.02s-.5-1-.5-1c3.18-2.5,10.9-.84,6-6.51-43.63-38.11-84.95-78.92-129-116.49-.63-.54-3.84-6.14-6.31-5.87-24.55,15.52-54.13,21.57-82.49,26.57-6.57,1.16-18.22.98-23.5,2.5-2.67.77-6.5,6.1-8.7,7.8-30.59,23.41-61.47,52.87-92.11,74.39-3.1,2.18-5.65,5.26-9.89,4.61-56.35-14.12-113.2-26.44-169.42-41.08-19.98-5.2-47.02-10.56-65.58-17.92-3.09-1.23-7.62-1.83-8-6,.22-2.15.88-4.48,1-6,2.09-3.01,5.28-5.17,8.11-7.39,36.76-28.82,82.89-56.09,116.89-86.61.62-.56,2.04-.8,2-1.99-.99-.06-2,.04-3-.01l2.5-2.01-369.05-.07c-2.23-.37-1.2,1.77-1.44,2.07ZM1126,715c2.78-2.11,6.13-3.85,8-6.99l-51.99.49c5.63.11,41.94,9.73,43.82,8.3.46-.35.05-1.72.17-1.81ZM914,785c-.77-2.05-2.63-.17-3.57.44-6.12,3.95-13.16,10.22-18.44,15.04-1.85,1.69-4.85.63-4.83,5,.03,5.35,13.57,5.15,18.39,6.43,21.86,5.81,45.1,11.12,67.45,16.09,17.28,3.84,34.84,7.23,52,11-1.01,1.99-2.56,1.99.5,2.98,7.52,2.42,16.14,2.7,23.79,4.43,18.21,4.12,34.29,8.4,51.08,11.66.71.14.62,1.79,1.32,1.9,3.61.55,5.14-.12,8.31-.97s3.24-.87,5.92-2.59c24.96-15.97,48.61-43.98,74.08-60.41,1.38-.11,1.2-2.8,1-3-.85-.8-19.67-1.59-23.26-2.25-14.12-2.6-25.02-6.65-37.74-12.76-.67-.32-1.33-.66-2-1s-2.16-3.01-4-3c-5.86-7.62-9.45-11.13-11-21-.19-1.23-.99-4.75-1-5-.08-2.11,0-4.12.26-6.23.55-4.37,5.88-12.9,1.43-15.05-15.18-2.79-30.28-6.45-45.46-9.45-12.34-2.44-25.19-5.5-37.75-7.25-3.09-.43-6.98.57-9.78-.05-.88-.2-.23-2.56-3.11-2-33.74,26.73-69.15,51.25-103.59,77.03ZM129,902l-39.34-1.62c-10.01,1.35-20.15.28-30.21.61-1.92.06-4.01-1.02-3.45,2-3.6-.23-6.37-2.28-10-2v28.5c0,2.95,5.5,5.74,8,6.5,5.8,1.77,20.05,1.78,26.69,1.64,1.69-.04,3.15-.29,4.31-1.64h2c2.72,2.66,7.12,2.11,10,0h3l28.48,1.76,4.52-1.76h3c-.7,2.87,2,1.5,3.64,1.48,3.9-.03,9.05.61,12.36-1.48h2c-.79,3.63,3.21,1.47,5,0h2c3.04,2.87,11.2,1.03,15,0h2c.68,1.57,4.32,1.57,5,0,.33,0,.67,0,1,0,6.15,1.58,15.28,2.8,21,0,.33,0,.67,0,1,0s.67,0,1,0,.67,0,1,0c8.94,2.52,18.11,1.1,27.24,1.37,1.64.05,2.9,1.32,3.76-1.37h3c.67,0,1.33,0,2,0h4l37.47,1.9,10.53-1.9h2c-.41,3.46,1.09,1.4,2.8,1.31,18.64-1.04,40.27-.81,58.76.67,1.89.15,4.01.94,3.44-1.98h2c1.11,2.59,6.81,1.6,9.5,1.64,1.85.03,2.88,1.43,2.5-1.64h2c-.59,2.9,1.61,2.12,3.49,2.04,4.06-.17,9.01-.92,13.03-.99,10.32-.18,22.79,1.76,32.48-1.05,120.37,0,240.53.02,361,0,43.32,0,86.68,0,130,0,5.32,0,10.68,0,16,0,3.66,0,7.34,0,11,0,.33,0,.67,0,1,0,7.99,0,16.01,0,24,0,.33,0,.67,0,1,0,20.65,0,41.35,0,62,0,49.7-.01,99.36.02,149,0,.67,0,1.33,0,2,0s1.33,0,2,0c-.56,3.13,2.61,2.97,2,0,1,0,2,0,3,0,.83,0,2.17,0,3,0,1.33,0,2.67,0,4,0,5.42,2.27,12.52,1.96,18,0,.33,0,.67,0,1,0,1.14,1.21,2.83,1.83,4.47,1.81,16.3-.22,32.95-1.05,49.04-.91,4.41.04,11.8,2.23,15.49-.9.67,0,1.33,0,2,0,7.04,1.45,16.17,2.38,23,0,.67,0,1.33,0,2,0,1.59,1.88,4.57,3.58,4,0,1.67,0,3.33,0,5,0,.68,1.57,4.32,1.57,5,0,1,0,2,0,3,0,5.73,1.67,14.19,1.68,20,0,25.98-.06,52.03.28,78,0,7.68-.08,32.25,1.45,37.27-1.96.4-.27,2.73-3.31,2.73-3.54v-29c0-2.81-6.63.4-8.5.5-8.05.43-16.42-.05-24.5,0h-42c-.33,0-.67,0-1,0-2.48-1.68-8.41-1.71-11,0-.67,0-1.33,0-2,0h-80c-.33,0-.67,0-1,0-10.17-2.17-22.6-1.39-33,0-.33,0-.67,0-1,0h-189c-.67,0-1.33,0-2,0-15.81-1.65-32.24-1.94-48,0h-2c-1.07-1.65-3.78-1-5.48-1.02-19.65-.22-42.84-1.46-62.05-.45-1.8.09-2.91.32-2.46,2.47-12.72,0-25.3-1-38-1h-52c-1,0-2,0-3,0H258c-22.34,0-44.53-.03-67,0-8.22-1.67-18.68-1.67-27,0-.33,0-.67,0-1,0,.69-3.42-1.87-1.34-4,0-.33,0-.67,0-1,0-8.35-1.42-18.86-2.18-27,0-.67,0-1.33,0-2,0Z"/>
  <polygon class="st4" points="1347 1024 1346 951 1403 951 1403 1024 1347 1024"/>
  <path class="st4" d="M147,951c.68,1.57,4.32,1.57,5,0,6.31-.15,12.69.12,19.01,0v73.01h-57.01v-1c3.03.56,1.92-1.53,2-3.45.88-22.45-.66-45.1,0-67.55,8.5-.29,17.12.38,25.63.08,1.75-.06,3.2-1.07,3.38-1.07.67-.01,1.33.02,2,0Z"/>
  <path class="st2" d="M896,693h-263,263Z"/>
  <path class="st2" d="M1418,1023v-72,72Z"/>
  <path class="st2" d="M1473,947c-15.76,8.19-37.13,1.65-54,4,17.05-2.99,36.84,1.15,54-4Z"/>
  <path class="st2" d="M1474,947c9.43-5.33,7.86-9.09,9-19,3.4,8.93-.27,15.96-9,19Z"/>
  <path class="st13" d="M1186,195c45.74,2.98,97.43,23.63,132.01,53.49,2.54,2.19,17.4,16.28,18.07,17.93,3.05,7.56-2.24,18.15,12.92,17.58-1.36,2.69,1.3,7.85,2.51,10.98,2.07,5.35,11.85,28.13,14.61,31.39,3.71,4.36,3.69-.12,3.94-.27,2.42-1.51,1.79,1.77,1.93,1.9-2.45,0-4.99,3.1-4.74,5.29,5.61,14.93,7.22,30.98,9.74,46.71,4.72,29.37,7.65,58.47,11,88,.55,4.82,3,15.12,3,18.5v16c0,5.26,2.2,15.71,3,21.5,7.22,52.49,27.65,105.89,38,159,4.75,24.38,9.29,49.22,11,74,1.71,24.77,1,48.4-2,73-.12.38-.7,1.35-1,2-2.35,5.19-.21,8.06-7,3-.35-.31-.66-.68-1-1-2.59-2.42-5.42-4.63-8-7-.59-.54-1.23-1.29-2-2l-2-2c-18.66-17.33-37.32-34.69-56-52,6.32-5.47,9.71-13.9,13.16-21.34,14.28-30.79,19.45-64.83,15.83-98.65-1.36,1.25-2.33,5.03-2.99,6.99.06-3.6,2.33-11.8.78-14.79-.5-.97-9.04-4.41-9.66-4.1-4.43,2.26-7.7,24.49-9.41,30.1-7.83,25.71-15.34,43.8-34.71,62.79-.66-2.11-2.94.04-3.91.59-26.42,15.02-54.04,23.37-83.83,29.17-11.2,2.18-57.66,6.98-63.97,11.54-.92.67-2.14,3.69-3.29,4.7-5.33-.32-11.17.87-14.89-4.35,1.19-8.14,24.79-18.89,26.39-21.63,2.58-4.42-.47-7.64-5.01-8.04-6.45-.57-19.4,9.97-24.51,14.52-3.86,3.44-8.75,11.89-13.38,11.51-2.36-.19-11.08-4.28-10.46-7.26,2.11-10.04,27.56-25.55,28.66-30.51,1.29-5.82-6.56-6.34-10.56-4.94-1.26.44-13.43,9.58-15.27,11.2-5.27,4.64-18.9,24.97-15.89,3.1,2.75-19.98,40.09-40.07,56.7-45.49,36.51-11.91,58.72-5.32,76.59-45.21,4.31-9.63,15.56-38.3,16.43-47.66.6-6.37-5.53-10.51-11.21-7.11-3.06,1.83-8.11,16.7-9.61,20.89-1.62-1.04-1.94-2.74-2.05-4.51-.97-15.64-.45-52.02,4.84-66.2,3.33-8.93,24.49-21.49,32.18-30.82,21.97-26.63,24.59-71.05-11.61-86.32-24.72-10.43-43.52-.33-66.98,1.73-29.74,2.61-51.78-25.43-80.37-28.87-3.4-14.25-30.61-21.24-43.46-22.04-11.55-.72-27.92,1.51-35.18,11.39-.9,1.23-3.17,7.14-3.35,8.64-14.05.96-22.05,6.21-36.28,1.78-18.35-5.72-31.52-17.71-50.72-1.78l2.99-2.01c.21-1.77-1.92-.07-2.12-2.45-.25-2.97,1.59-13.31,2.23-16.94,4.57-25.8,13.22-51.02,21.9-75.6,17.88-37.01,40.24-67.89,77-88,26.38-14.43,44.9-16.05,73.54-18.9,1.84-.18,1.1-2.07,2.93-2.22,10.63-.86,33.1.37,44.53,1.11ZM1027.69,392.68c2.15-1.46,9.07-11.74,10.03-14.46,4.53-12.87,3.41-45.23-17.17-41.16-15.6,3.08-18.4,36.65-12.31,48.2,3.3,6.26,12.7,12.01,19.45,7.42ZM1207.95,355.06c-.4-.32-7.81,3.79-9.46,3.93-16.97,10.34-16.43,56.8,6.01,56.81,20.35,0,23.88-39.25,15.48-53.02-.2-.32-4.84-5.39-5.18-5.57-2.7-1.36-2.62,1.2-6.84-2.16Z"/>
  <path class="st13" d="M411,193c29.89,4.84,63.29,20.9,86,41,28.46,25.19,46.33,64.5,57,100,4.98,16.57,9.34,35.79,11,53,.09.98-.06,2.01,0,3-13.04-10.76-23.06,1.14-34.02,5.48-12.7,5.04-27.13,4.52-39.98.52-.26-2.03-4.33-10.31-5.62-11.88-12.2-14.99-58.19-9.35-71.91,2.86-.5.44-7.3,10.38-7.48,11.02-4.16-1.13-11.65,2.11-15.68,3.82-15.35,6.52-33.6,21.57-49.13,24.87-16.9,3.59-34.59-5.28-51.65-5.73-55.48-1.45-83.71,54.05-48.05,97.04,7.93,9.56,33.15,25.85,35.73,34.27,4.65,15.17,1.01,38.15,3.78,53.72-6.71-4.92-17.49-4.34-14.97,6.28.19.78,1.73.86,2.25,1.98,11.07,24.04,24.16,44.18,48.36,56.6,24.22,12.43,55.77,9.84,80.73,21.26,9.9,4.53,31.06,21.42,30.27,33.22-.47,7.04-10-6.49-12.12-8.37-3.91-3.47-21.03-16.48-23.28-6.27-1.58,7.17,4.6,7.25,9.22,11.32,4.02,3.54,17.81,16.1,14.6,21.51-7.34,12.36-12.17-.32-18.55-5.56-4.16-3.42-23.47-14.7-26.36-6.3-2.7,7.83,8.2,8.6,13.31,12.35,1.73,1.27,10.91,10.49,10.07,11.98-.58,1.04-5.09,3.08-6.52,3.63-9.21,3.53-33.38,2.87-45.02,2.36.37-1.12-2.4-3.2.35-2.87,11.9,1.41,23.78,1.33,35.64-.14l-11.73-5.76c-53.22-3.36-109.04-6.56-156.78-32.21-.6.73,1,2.3,1.51,2.98-13.82-8.3-23.35-23.55-31.17-37.33-3.83-6.76-9.1-26.97-18.57-22.93-8.95,3.82-.53,17.89.74,24.26-1.73-3.15-3.17-7.34-5-9v16l-6.04-12.46c-8.67-29.1-6.67-58.99-1.48-88.56,7.42-42.26,24.63-62.99,12.44-108.4-10.57-39.37-17.97-59.13-15.97-102.13.54-11.64,4.28-24.17,2.05-35.45,1.21-4.21,5.27-15.76,5.67-18.66.44-3.15-1.52-7.1-3.67-9.34,1.7.21,3.27.69,4.93.97,1.48-6.26,19.18-37.37,17.89-40.79-.1-.26-1.34-.77-1.82-1.19,9.6.74,9.89-9.3,13.55-14.95,4.38-6.77,15.55-18.24,20.92-23.04,33.71-30.12,78.58-43.89,121.54-49.01,29.54-3.52,53.59-3.76,83,1ZM523.68,341.31c-.44-.56-6.93-5.66-7.62-5.87-.93-.29-8.47-1.38-8.9-1.25-.12.04-.23,1.55-.84,1.82-1.24.55-3.31.65-4.01,1.3-13.49,12.45-4.67,58.8,14.71,54.23,18.38-4.33,15.41-39,6.67-50.23ZM337.37,414.41c24.81-10.19,11.07-68.59-13.92-56.45-16.89,8.21-13.79,53.44,5.27,57.81,1.84.42,5.82.63,7.56.21.8-.19.84-1.46,1.08-1.56ZM208.5,719v1l.5-.5-.5-.5Z"/>
  <path class="st3" d="M627,708c.33-.04.67.02,1,0l366,2c-34,30.52-80.13,57.79-116.89,86.61-2.83,2.22-6.02,4.39-8.11,7.39.21-2.54-1.33-6-1.03-8.3.03-.24,3.73-2.7,3.03-3.68-.3-.42-4.95-.21-5-5.02,0-1.33.07-2.68,0-4,0-.1.08-.18,0-1-4.78-47.04-56.05-55.46-94.52-58.98-7.26-.66-16.39-1.91-22.99-1.22-41.95,4.33-94.74,8.7-125.01,46.2-3.74,4.63-5.95,12.99-9.22,16.42-1.15,1.2-.36,2.31-.53,2.47-.25.24-1.79,2.77-1.65,4.38-5.25,12.85-5.45,32.27.21,44.94,9.09,20.33,33.29,31.65,53.49,37.51,24.36,7.07,49.7,11.61,75.21,10.3l-3.99,1.98h8.99s-3.99-1-3.99-1c4.84-3.38,14.82-2.24,21.38-3.11,40.43-5.4,99.81-25.2,104.62-71.88.38,4.17,4.91,4.77,8,6-1.78,2.96-7.74-2.66-6.99,1.99,19.16,8.53,40.37,13.32,60.79,18.71,49.21,13,98.43,24.72,147.42,35.58,7.73,1.71,25.58,8.37,32.38,5.81,1.84-.7,3.07-1.12,1.41-3.09,4.24.65,6.79-2.43,9.89-4.61,30.64-21.52,61.52-50.98,92.11-74.39l.98,4.99c-.12-1.9,1-2.43,2.71-2.76,38.08-7.27,71.57-7.7,107.8-25.24,3.31-1.6,9.92-3.49,9.51-7.99,44.05,37.57,85.37,78.38,129,116.49,4.89,5.67-2.82,4.01-6,6.51-52.5-.09-105.03.1-157.55.05-413.09-.4-827.04.2-1240.45-.05-.85-1.01-1.99-.75-3-1-1.33-.33-2.67-.66-4-1-1.52-2.11-1.49-3.1.43-5.08,48.96-42.5,94.49-88.73,143.57-130.92-2.49,5.38,1.54,1.9,4.27,3.05,51.22,21.4,134.51,36.73,190.07,27.8,18.71-3.01,50.18-11.44,49.64-34.84-.16-.23-2.43,1.56-2.99,2,7.18-13.13,8.08-25.53,1.01-38.99,7.55.39,15.49-.55,22.99,0,.45,2.96-2.67,7.14-3,8.51-.22.93,1.85.17,1.9.91.1,1.52-1.89,7.51-1.74,9.13.09,1.02,9.66,15.77,11.14,17.15,7.29,6.79,21.53,11.66,31.31,13.19,7.44,1.17,18.94-.18,24.73,1.1,1.1.24.24,2.03,1.15,2.03s.05-1.79,1.15-2.03c2.43-.53,6.02.32,8.83,0,21.57-2.44,43.85-7.01,62.5-16.46,7.44-3.77,18.27-9.02,22.86-16.18,2.41-3.76,7.62-15.69,3.16-18.34.65-.05,1.35.08,2,0ZM525.31,807.61c-1.28-3.8-.55.21-2.74.48-11.08,1.37-29.87.47-41.96.63-1.36.02-2.5-1.59-3.13-1.73-.54-.12-.37,1.87-1.13,2.04-1.94.42-4.99-1.05-5.26-.91-.37.21.41,1.71-.59,1.89-.89.16-.06-1.81-1.15-2.03-4.6-.93-10.76,1.41-13.74,1.08-.66-.07-.55-1.89-1.04-1.94-1.62-.15-8.43,1.33-10.08,2.86.23-5.67-1.69,0-1.99.04-.9.13-.05-1.82-1.15-2.03-5.85-1.14-13.96,1.36-20.2.15-2.26,3.42,1.82,5.18-.14,8.86,5.78-4.2,4.18-.16,6.88.58,2.3.63,10.85,1.25,13.66,1.31,8.26.19,20.12-1.24,29.11-1.49,3.57-.1,8.03,1.24,11.91.69,2.96-.42-.15-4.11,3.85,0,14.68-.96,29.49,1.03,44.08,1.01,4.57,0,11.55-1.72,15.98-1.68.8,0,1.85,1.64,2.99,1.61,1.05-.03.97-4.05,2.02-4.04s1.1,3.66,1.58,3.99c.55.38,11.22-1.58,13.34.09.8-.17,3.26-8.62-.07-9.92-9.78-3.82-30.28,1.6-41.03-1.54ZM570.5,814v1l.5-.5-.5-.5ZM275.5,818v1l.5-.5-.5-.5ZM1250.15,819.82l-1.14-1.82c-2.24,4.53,4.42,5.62,4.8,6.15,1.18,1.68-1.85,4.18,3.67,4.64,4.62.39,3.73,1.25,4,1.21,10.97-1.72,24.54-2.69,36.09-2.1,1.81.09,1.44,2.1,1.89,2.07,1.28-.08,3.9-2.02,7.04-2.06s23.16,1.38,24.51.08c.95-.91.62-8.08-3.54-8.97-6.63-1.42-23.29.55-30.84.64-1.43.02-3.01-1.41-4.94-1.35-.99.03-8.65.58-9.1.68-1.12.25-.1,1.81-1.09,2.01-.93.19.38-1.79-1.93-2.11-8.62-1.17-20.43,1.26-29.43.91ZM206.66,822.39c-7.83-2.94-19.24-2.27-27.16-1.38-4.43.5-7.47,1.12-6.5,6.44,1.16,6.36,13.05,2.06,18.49,3.55,1.01.28-.78,1.8-.51,1.99.74.52,5.25-1.86,7.43-2.06,24.98-2.24,58.89.01,85.13.02,6.33,0,15.12,1.59,20.98,1.16,2.34-.17,1.04-2.37,1.97-2.13.99.26.23,1.69.59,1.89.25.14,3.29-1.3,5.25-.9.71.15.71,2.03,1.12,2.01,3.16-.18,8.87-2.6,14.08-2.48,1.58.04,4.31,1.68,4.46,1.5.18-.21-.29-1.64.12-2.13,1.85-2.22,3.21-2.04.36-5.85-2.23-2.98-6.4-4.59-8.45-1.04.23-4.46-7.4-1.02-9.59-1.1-.41-.01-2.58-.82-6.89-.84-15.24-.07-36.82,1.76-51.11.04-.82-.1-4.58-4.98-2.42-.1-1.58,1.09-32.52-1.26-38.39.04-1.09.24-.15,1.91-1.12,1.98s.65-2.23-2.96-2.1c-4.86.17-2,2.88-3.05,3.09-2.14.43-1.34-1.44-1.83-1.62ZM1247.5,820v1l.5-.5-.5-.5ZM1248.99,824.99c.72-1.07-.48-2.74-.98-1.99-.72,1.07.48,2.74.98,1.99ZM1287.88,845.11c-2.13-2.86-40.17-.42-46.24-.47-8.48-.07-17.42-.59-26.18-.6-6.1-.01-15.98-3.28-19.97,1.96-.14-3.74-3.45-.66-3.49,1.48-.12,8,14.3,5.39,18.52,5.58,20.4.93,50.31,2.78,70.03.99,4.57-.42,10.66-4.45,7.32-8.93ZM273,854c-1.28-.77-11.45.57-14,0,1.35,4.52,4.76,8.86,9.77,9.71l105.81.38c4.27-4.57,2.39-.39,4.85,0,2.81.44,30.34.88,31.58-.1.15-.12-2.35-2.54.49-2,.9.06.22,1.84,1.14,1.96,2.6.35,19.83,1.05,20.84.03,2.11-2.12,3.38-6.31.5-8.45-3.9-2.91-5.56-.48-8.48-.74-4.14-.37-13.88.09-14.51-3.78-2.03-.32-.1,2.62-1.54,3.07-2.99.92-21.44-.66-26.76-.63-12.79.09-26.75,1.25-38.98,1.28-10.1.03-27.73-2.96-37.05-.73-1.15.28-.23,2.02-1.16,2.02s0-1.74-1.16-2.02c-5.22-1.27-9.05.65-12.98.65-2.77,0-15.06-1.58-16.36-.64,1.52,9.97-1.63.22-2-.01Z"/>
  <path class="st9" d="M1050,400c-1.11,9.14,10.68,22.06,17.67,26.82,1.78,1.21,5.81,1.98,6.42,2.82,1.33,1.85,1.33,17.9.69,20.64-.55,2.33-7.31,7.48-9.2,7.63-6.39.5-17.65,1.47-22.54-2.68.45,2.82-7.06-1.43-7.82-.02-4.72,8.77,12.57,18.85,16.78,23.58,2.95,3.31,3.91,7.66,6.03,10.44,12.43,16.31,26.63,18.55,46.2,15.5,19.72-3.08,21.48-9.78,34.22-21.77,4.24-3.99,7.65-4.01,11.24-9.96,1.43-2.37,4.14-1.66,1.54-7.76-3.77-8.87-19.14-.15-26.76-.16-7.1-.01-13.14-2.61-18.69-4.79-.71-.28-2.03.9-4.18-.38-6.83-4.07-10.9-20.44-6.71-26.26.61-.85,16.28-4.44,20.05-6.18,10.57-4.88,20.07-12.76,17.04-25.46,28.59,3.44,50.63,31.48,80.37,28.87,23.46-2.06,42.26-12.16,66.98-1.73,36.2,15.27,33.58,59.69,11.61,86.32-7.7,9.33-28.86,21.88-32.18,30.82-5.28,14.18-5.81,50.56-4.84,66.2.11,1.77.43,3.47,2.05,4.51-1.19,3.32-.92,5.5-1.2,6.27-2.73,7.58-12.48,36.77-17.25,40.77-10,8.4-38.26,13.14-51.56,16.96-10.13,2.91-19.79,5.76-29.5,10h-155.5c-.43-2.49.09-6.22,0-9-.03-1,0-2,0-3,3.03.56,1.93-1.53,2-3.45.21-5.27-.28-10.6.02-15.86.04-.69,1.94-.69,1.98-1.27,1.41-19.31,1.63-38.88,3.99-58.42.16-1.3-.16-2.7,0-4,.67-5.41,1.31-10.97,2.11-16.34,1.47-9.8,10.13-38.19,6.99-45.27-1.61-3.64-17.41-13.63-21.59-17.41-6.87-6.2-20-20.24-24.51-27.99-15.74-26.99-18.93-59.38-9-89,19.2-15.94,32.37-3.95,50.72,1.78,14.23,4.44,22.22-.82,36.28-1.78Z"/>
  <path class="st5" d="M565,390c9,7.43,13.31,33.24,12.98,44.49-.61,20.44-10.53,45.76-21.98,62.51-5.91,8.65-14.95,18.12-22.35,25.65-1.05,1.07-3.73,1.01-5.65,3.85-2.7,3.99-1.68,7.23-2,11.5-1.23,16.32,2.05,36.47,5,53-3.47-.4-6.67-1.1-10.02.49-3.86,8.34,6.75,49.29,3.84,54.34-.33.58-10.2,4.18-12.15,5.34-17.71,10.56-27.69,19.91-39.54,36.49-2.5,3.5.85,4.56-6.65,5.32-7.25.74-35.51,1.24-41.75-.03-4.32-.88-13.54-9.71-16.98-11.63-28.47-15.93-62.46-8.19-92.06-28.5-11.26-7.73-32.33-33.52-34.69-46.81-2.76-15.58.88-38.56-3.78-53.72-2.58-8.42-27.8-24.7-35.73-34.27-35.66-42.99-7.43-98.49,48.05-97.04,17.06.45,34.75,9.32,51.65,5.73,15.52-3.3,33.78-18.35,49.13-24.87,4.03-1.71,11.52-4.95,15.68-3.82-2.78,9.77,7.11,14.68,10.23,21.77,3.88,2.26,28.79,7.28,29.87,8.63.77.97.79,1.91.94,3.06,3.51,26.91-12.5,38.16-37.44,34.44-5.98-.89-11.81-3.89-16.68-5.47-6.09-1.98-15.42-5.68-12.7,5.86,1.55,6.59,18.82,12.32,25.01,13.99,16.75,4.52,36.14,1.23,48.83-10.75,1.34-1.26,1.81-3.41,1.98-3.51.94-.54,11.64,5.93,13.42,7.07,6.61,1.63,10.93.77,17.32-.81,4.92-1.22,14.24-5.62,17.94-8.57.44-.35,7.68-7.52,7.99-7.99,2.25-3.47,3.62-13.97-2.31-14.62-8.24-.91-10.53,7.25-16.47,11.34-7.86,5.4-24.99,8.14-28.49-3.38-.77-2.52-.93-21.41.04-23.07s5.65-1.98,7.73-3.3c6.76-4.26,18.88-18.28,17.78-26.69,12.86,4,27.28,4.52,39.98-.52,10.95-4.34,20.97-16.25,34.02-5.48Z"/>
  <path class="st4" d="M1436,902c8.08-.05,16.45.43,24.5,0,1.87-.1,8.5-3.31,8.5-.5v29c0,.22-2.33,3.27-2.73,3.54-5.02,3.42-29.59,1.88-37.27,1.96h-103c-1,0-2,0-3,0-1.67,0-3.33,0-5,0-1.33,0-2.67,0-4,0-.67,0-1.33,0-2,0-7.65.01-15.35,0-23,0-.67,0-1.33,0-2,0-22.98.02-46.02-.01-69,0-.33,0-.67,0-1,0-5.99,0-12.01,0-18,0-1.33,0-2.67,0-4,0h-3c-1,0-2,0-3,0-.67,0-1.33,0-2,0s-1.33,0-2,0h-2c-49.64.02-99.3-.01-149,0h-62c-.33,0-.67,0-1,0-7.25-1.68-16.84-1.67-24,0-.33,0-.67,0-1,0-2.59-1.71-8.52-1.68-11,0-5.32,0-10.68,0-16,0h-130c-120.47.02-240.63,0-361,0-16.32,0-32.68,0-49,0h-2c-3.99,0-8.01,0-12,0h-2c-21.77,0-43.38,0-65,0h-2c-15.97,0-32,0-48,0h-9c-10.32,0-20.68,0-31,0-.33,0-.67,0-1,0l-.5-.98-.5.98c-.33,0-.67,0-1,0-6.99,0-14.01,0-21,0-.33,0-.67,0-1,0-1.67,0-3.33,0-5,0h-2c-4.99,0-10.01,0-15,0h-2c-1.67,0-3.33,0-5,0h-2c-5.32,0-10.68,0-16,0h-1l-.5-.98-.5.98H54c-2.5-.76-8-3.55-8-6.5v-28.5c3.63-.28,6.4,1.77,10,2,21.66,1.39,50.28-.95,73-1,.67,0,1.33,0,2,0,8.99-.02,18.01.03,27,0,.33,0,.67,0,1,0,1.33,0,2.67,0,4,0,.33,0,.67,0,1,0,8.99-.02,18.01.01,27,0,22.47-.03,44.66,0,67,0,57.65,0,115.35,0,173,0h1c18.02,0,36.22,0,54,0h120c.33,0,.67,0,1,0,2.22,1.7,7.8,1.69,10,0,.33,0,.67,0,1,0h94c8.87,0,18.18,0,27,0h146c10.32,0,20.68,0,31,0,12.7,0,25.28,1,38,1,23.26,0,47.09-1,70-1h2c15.63,0,32.29,0,48,0,.67,0,1.33,0,2,0,62.63-.03,126.05.14,189,0,.33,0,.67,0,1,0,10.98-.02,22.02,0,33,0,.33,0,.67,0,1,0,26.65-.01,53.35.02,80,0,.67,0,1.33,0,2,0,3.66,0,7.34,0,11,0,.33,0,.67,0,1,0,13.98-.01,28.02.08,42,0Z"/>
  <path class="st0" d="M149,348c2.23,11.28-1.51,23.82-2.05,35.45-2,43,5.39,62.76,15.97,102.13,12.2,45.41-5.02,66.14-12.44,108.4-5.19,29.56-7.19,59.45,1.48,88.56l6.04,12.46v-16c1.83,1.66,3.27,5.85,5,9,4.33,7.89,8.9,16,14.19,23.31,2.7,3.74,15.73,17.17,16.37,18.7.31.75.69,1.2,0,1.97l-117.07,107.01c-2.17.4-1.15-.52-1.58-1.37-1.23-2.43-2.2-7.71-2.9-10.62,1.85-.97.82-3.51.56-5.04-8.57-51.61-.14-90.96,7.8-141.13.23-1.46,1.52-3.88-.36-4.83,4.59-21.16,10.43-42.22,16.51-62.99,9.36-32.01,22.09-61.78,26.49-95.01,4.19-12.21,3.75-25.63,5.02-38.31,3.68-36.7,9.03-75.58,15.98-113.69.06-.32-.06-.68,0-1,1.1-5.06,2.59-10.03,4-15,.29-1.03.92-1.72,1-2Z"/>
  <path class="st7" d="M914,785c34.44-25.77,69.85-50.3,103.59-77.03,2.88-.56,2.23,1.8,3.11,2,2.8.63,6.69-.37,9.78.05,12.56,1.74,25.41,4.81,37.75,7.25,15.18,3,30.28,6.66,45.46,9.45,4.45,2.15-.87,10.68-1.43,15.05-.27,2.11-.35,4.11-.26,6.23l-92.73-19.75c-11.69,7.46,2.21,8.75,8.71,10.26,22.24,5.2,54.59,13.29,76.65,15.38,2.97.28,5.56.12,8.36-.89,1.55,9.87,5.14,13.38,11,21-40.28-7.98-80.57-19.13-121.32-24.02-.71-.09-.67-1.93-1.27-1.98-5.3-.43-14.09,3.46-5.67,7.76l128.07,25.99c1.33.42,2.14-.34,3.19-.76,5.28,8.04,17.37,13.49,26.6,15.9,5.27,1.37,26,5.14,29.82,2.98,1.05-.59,3.9-5.97,6.58-3.87-25.48,16.44-49.13,44.44-74.08,60.41-2.68,1.71-2.87,1.78-5.92,2.59-28.29-6.71-56.6-13.76-85-20-17.16-3.77-34.72-7.16-52-11-.65-2.21-2.66-1.78-4.31-2.19-26.41-6.57-53-12.46-79.21-19.79l-1.48-2c9.06-5.75,17.4-12.59,26-19.02ZM975.79,767.25c-4.9-.2-9.55.32-8.87,6.11l158.75,33.58c6.03.76,7.18-5.88,1.83-7.94-46.19-9.02-92.04-19.97-138.28-28.72-4.1-.78-12.65-3-13.44-3.03ZM942.87,786.16c-1.67-.93-4.95,4.48-4.84,5.23.3,1.91,6.72,3.68,8.77,4.31,48.76,15,106.2,19.26,155.84,33.19,4.76,1,9.02-1.14,6.43-6.21-30.19-7.56-61.31-14.34-92.08-20.29-8.4-1.63-18.73-3.32-26.23-4.63-12.58-2.2-27.89-8.39-38.35-9.75-1.94-.25-5.13,1.06-8.68-.07-.92-.29-.73-1.71-.86-1.78Z"/>
  <path class="st6" d="M887,661c-8.87-9.5-16.93-19.86-23.17-31.33-5.27-9.7-9.4-26.11-14.38-33.62-2.63-3.96-11.26-9.23-14.97-13.03-11.46-11.73-27.96-31.06-25.48-48.55.18-1.24-.5-1.86,1.51-1.49,5.1.93,23.75,30.67,28.29,16.32,4.02-12.7-20.13-24.69-21.66-31.01-.97-4.02,4.27-8.76,9.14-6.27,2.27,1.16,14.59,11.8,17.77,14.44,3.47,2.88,3.13,8.24,9.99,6.12,17.51-5.43-15.27-24.27-15.04-31.56,1.91-1.8,18.28,2.52,21.28,4,2.13,1.05,16.95,13.05,18.25,14.96,2.93,4.32,1.91,8.33,4.03,12.03,1.63,2.83,7.76,3.82,10.47.54,2.01-2.44,6.2-22.49,12.84-18.39,5.63,3.48,3.34,37.59,9.27,44.22l43.59,40.49c8.72.35,8.77-3.19,10.21-10.4l31.05-32.44c-2.14,17.75-5.69,35.26-7.99,53-1.76,13.6-3.49,27.27-4,41l-1.99-7.99c-12.74,24.77-41.53,29.66-67.39,25.86-9.22-1.35-18.02-5.43-26.83-7.25-1.78-.37-3.16-.91-4.8.38Z"/>
  <path class="st13" d="M526,538c38,26.62,84.54,72.91,91.72,120.78,3.24,21.61,2.11,32.97-12.72,49.22-9.12,1.34-16.93,7.64-25.58,10.92-14.31,5.41-30.61,8.04-45.19,12.84l-5.23,4.23c11.04.02,22.28-2.43,32.99-4.99-4.97,3.46-36.06,8.82-38.99,5.99-1.38-6.3,28.34-30.78,11.52-31.08-3.52-.06-8.08,4.18-10.55,6.55-3.84,3.69-13.85,20.39-14.96,21.04-2.18,1.27-14.19-1.51-14.91-2.61-1.52-2.35,6.68-15.28,8.5-17.8,3.02-4.19,13.93-13.56,14.68-15.4,1.15-2.81-.84-6.18-3.84-6.71-12.7-2.24-28.28,27.52-30.95,28.01-3.37.62-1.43-13.66-.79-15.79,9.36-31.54,50.09-44.88,77.01-53.16,3.07-.94,8.15,1.34,9.87-3.99,5.77-17.84-28.29-3.74-29.57-5.05-1.05-1.08-1.15-18.18-1.63-21.8-1.3-9.78-4.8-19.35-6.38-28.2-2.95-16.53-6.23-36.68-5-53Z"/>
  <path class="st0" d="M151,320c-8.17-.98-6.56.16-12.56.94-18.82,2.43-28.3-20.54-26.32-36.32,2.56-20.41,29.8-35.56,46.94-22.17,4.95,3.87,6.28,10.86,12.95,16.55.49.42,1.73.93,1.82,1.19,1.29,3.42-16.41,34.53-17.89,40.79-1.67-.28-3.23-.77-4.93-.97Z"/>
  <path class="st0" d="M1349,284c1.26-2.5,10.27-14.05,12.52-15.98,32.83-28.07,67,36.63,27.88,56.89-.76.4-6.47,3.11-6.85,3.17-.73.11-10.15.26-10.56-.08-.15-.12.49-3.4-1.93-1.9-.25.15-.23,4.63-3.94.27-2.77-3.26-12.54-26.04-14.61-31.39-1.21-3.14-3.87-8.29-2.51-10.98Z"/>
  <path class="st0" d="M988,650c-2.37,14.33.12,30.2-4,44-3.52,1.13-27.93.26-33.55.04-6.51-.25-21.16-.3-26.28-1.71-7.5-2.07-31-24.71-37.17-31.33,1.64-1.3,3.02-.75,4.8-.38,8.8,1.83,17.61,5.9,26.83,7.25,25.86,3.79,54.64-1.1,67.39-25.86l1.99,7.99Z"/>
  <path class="st8" d="M866,787c.05,4.8,4.7,4.6,5,5.02.7.98-3,3.45-3.03,3.68-.3,2.3,1.23,5.76,1.03,8.3-.12,1.52-.78,3.85-1,6-4.81,46.67-64.19,66.48-104.62,71.88-6.56.88-16.54-.27-21.38,3.11l3.99,1h-8.99s3.99-1.98,3.99-1.98c-25.51,1.31-50.85-3.23-75.21-10.3-20.2-5.86-44.4-17.19-53.49-37.51-5.66-12.67-6.08-31.22-.83-44.07,2.82,32.41,2.53,50.36,34.15,66.75,64.23,33.3,220.27,25.11,220.38-71.88Z"/>
  <path class="st8" d="M199,747c2.12-1.75,5.6-6.27,8.26-5.87,16.52,10.92,34.45,17.66,53.53,22.58,39.33,10.14,92.13,17.99,131.22,9.82,26.05-5.44,26.61-11.15,44.98-25.52.56-.44,2.83-2.22,2.99-2,.54,23.41-30.93,31.84-49.64,34.84-55.56,8.93-138.85-6.4-190.07-27.8-2.74-1.14-6.76,2.33-4.27-3.05.35-.3.64-.7,1-1l3-1.01-1-.99Z"/>
  <path class="st0" d="M1364,771c-3.53-3.27-21.7-17.84-20.89-21.29.28-1.17,13.84-14.59,16.3-17.8,19.44-25.34,21.07-45.39,30.59-73.91.65-1.96,1.63-5.75,2.99-6.99,3.62,33.83-1.55,67.86-15.83,98.65-3.45,7.44-6.84,15.88-13.16,21.34Z"/>
  <path class="st8" d="M625,708c4.46,2.65-.75,14.58-3.16,18.34-4.59,7.16-15.41,12.4-22.86,16.18-18.65,9.45-40.93,14.02-62.5,16.46-2.81.32-6.4-.53-8.83,0-1.1.24-.24,2.03-1.15,2.03s-.05-1.79-1.15-2.03c-5.8-1.28-17.29.07-24.73-1.1-9.78-1.53-24.02-6.4-31.31-13.19-1.48-1.38-11.05-16.13-11.14-17.15-.14-1.62,1.84-7.61,1.74-9.13-.05-.74-2.12.02-1.9-.91.32-1.37,3.44-5.55,3-8.51,7.92.58,3.92,5.29,5.45,12.05,10.04,44.17,94.07,30.49,123.9,16.81,16.61-7.62,23.63-16.08,34.64-29.86Z"/>
  <path class="st2" d="M1457,888l.5,1H58.48s.52-1,.52-1c413.41.25,827.36-.35,1240.45.05,52.52.05,105.05-.14,157.55-.05Z"/>
  <path class="st8" d="M876,816c18.56,7.37,45.6,12.72,65.58,17.92,56.22,14.64,113.08,26.96,169.42,41.08,1.66,1.97.44,2.4-1.41,3.09-6.8,2.56-24.65-4.09-32.38-5.81-48.99-10.86-98.2-22.58-147.42-35.58-20.42-5.39-41.63-10.18-60.79-18.71-.74-4.65,5.21.97,6.99-1.99Z"/>
  <path class="st0" d="M212,724c-.51-.67-2.11-2.25-1.51-2.98,47.74,25.65,103.56,28.85,156.78,32.21l11.73,5.76c-11.86,1.47-23.74,1.55-35.64.14-2.76-.33.02,1.75-.35,2.87-3.12-.14-6.53,1.31-6-2,.03-.16,1.26-.2,1-.99l-7,.99c-26.79-1.18-102.34-14.2-119-36Z"/>
  <path class="st0" d="M1337,732c-23.99,23.52-53.93,31.33-86.82,37.68-21.47,4.15-47.52,9.57-68.18,8.32,1.15-1.01,2.37-4.03,3.29-4.7,6.3-4.56,52.77-9.36,63.97-11.54,29.79-5.8,57.41-14.14,83.83-29.17.97-.55,3.26-2.69,3.91-.59Z"/>
  <path class="st2" d="M1331,951H187h1144Z"/>
  <path class="st8" d="M1213,796c2.21-1.69,6.03-7.03,8.7-7.8,5.27-1.52,16.93-1.34,23.5-2.5,28.36-5,57.94-11.05,82.49-26.57,2.47-.27,5.68,5.33,6.31,5.87.41,4.51-6.2,6.39-9.51,7.99-36.24,17.53-69.73,17.97-107.8,25.24-1.71.33-2.83.86-2.71,2.76l-.98-4.99Z"/>
  <path class="st0" d="M1127,781c-1.05.42-1.86,1.18-3.19.76l-128.07-25.99c-8.41-4.3.38-8.19,5.67-7.76.6.05.55,1.89,1.27,1.98,40.75,4.88,81.04,16.03,121.32,24.02,1.84,0,3.35,2.67,4,3v3c-.53.44-.93.97-1,1Z"/>
  <path class="st3" d="M493.21,209.83c-2.55-4.08,10.91-6.87,14.27-6.91,19.81-.22,31.67,25.46,24.02,42.08l-38.29-35.17Z"/>
  <path class="st0" d="M1112,748c0,.25.81,3.77,1,5-2.8,1.01-5.39,1.17-8.36.89-22.05-2.08-54.4-10.18-76.65-15.38-6.5-1.52-20.41-2.81-8.71-10.26l92.73,19.75Z"/>
  <path class="st2" d="M625,708c.24-.3-.79-2.44,1.44-2.07l369.05.07-2.5,2.01c-9.74-.49-20.16.03-30,0l-.51-.99-1.49.99c-4.32-.01-8.68,0-13,0-.99-1.61-4.95-1.64-6,0-3.66,0-7.34,0-11,0-.33-1.48-3.58-1.54-4,0-1.33,0-2.67,0-4,0-.15-1.49-2.85-1.49-3,0-16.32-.02-32.68,0-49,0l-.51-.99-1.49.99c-1.67,0-3.33,0-5,0-.33-1.48-3.58-1.54-4,0-2.33,0-4.67,0-7,0-.33-1.48-3.58-1.54-4,0-7.65,0-15.35,0-23,0l-.51-.99-1.49.99c-16.65,0-33.35,0-50,0-.15-1.49-2.85-1.49-3,0-14.32,0-28.68,0-43,0-.15-1.49-2.85-1.49-3,0-11.99,0-24.01-.01-36,0-.33-1.48-3.58-1.54-4,0-11.32.01-22.68-.03-34,0l-.51-.99-1.49.99c-4.99.02-10.01-.06-15,0l-.51-.99-1.49.99c-1,.02-2-.04-3,0l-.51-.99-1.49.99c-.65.08-1.35-.05-2,0Z"/>
  <path class="st3" d="M1031.94,218.07l-.88,3.49c-12.81,8.87-21.42,22.38-31.75,33.18-3.21,3.35-4.08-4.35-4.29-7.25-1.41-19.91,17.22-38.17,36.92-29.42Z"/>
  <path class="st2" d="M861,902c-40.65,0-81.35,0-122,0-8.82,0-18.13,0-27,0-31.32,0-62.68.02-94,0-.33,0-.67,0-1,0-3.32,0-6.68,0-10,0-.33,0-.67,0-1,0-39.98-.02-80.02,0-120,0-17.78,0-35.98,0-54,0h429Z"/>
  <path class="st5" d="M1130,778c12.72,6.11,23.62,10.16,37.74,12.76,3.59.66,22.41,1.44,23.26,2.25.2.19.38,2.88-1,3-2.68-2.1-5.53,3.28-6.58,3.87-3.82,2.16-24.55-1.6-29.82-2.98-9.23-2.41-21.33-7.85-26.6-15.9.07-.03.47-.56,1-1,.75-.61,1.7-.91,2-2Z"/>
  <path class="st0" d="M605,708c-12.36,13.54-25.58,18.84-43,23-10.72,2.56-21.96,5.01-32.99,4.99l5.23-4.23c14.57-4.8,30.88-7.43,45.19-12.84,8.66-3.27,16.46-9.58,25.58-10.92Z"/>
  <path class="st13" d="M632,708c.67-.01,1.33,0,2,0,4.99-.06,10.01.02,15,0,.67,0,1.33,0,2,0,11.32-.03,22.68.01,34,0,1.33,0,2.67,0,4,0,11.99-.01,24.01,0,36,0,1,0,2,0,3,0,14.32,0,28.68,0,43,0,1,0,2,0,3,0,16.65,0,33.35,0,50,0,.67,0,1.33,0,2,0,7.65,0,15.35,0,23,0,1.33,0,2.67,0,4,0,2.33,0,4.67,0,7,0,1.33,0,2.67,0,4,0,1.67,0,3.33,0,5,0,.67,0,1.33,0,2,0,16.32,0,32.68-.02,49,0,1,0,2,0,3,0,1.33,0,2.67,0,4,0s2.67,0,4,0c3.66,0,7.34,0,11,0,2,0,4,0,6,0,4.32,0,8.68-.01,13,0,.67,0,1.33,0,2,0,9.84.03,20.26-.49,30,0,1,.05,2.01-.05,3,.01.04,1.19-1.38,1.43-2,1.99l-366-2c.33-.02.67.01,1,0,1-.04,2,.02,3,0Z"/>
  <path class="st2" d="M988,303c-8.67,24.59-17.32,49.8-21.9,75.6-.64,3.63-2.48,13.96-2.23,16.94.2,2.38,2.33.68,2.12,2.45l-2.99,2.01c-9.93,29.62-6.74,62.01,9,89-2.17,1.62-3.58-4.5-4.01-5.26-19.87-35.09-11.51-60.74-4.06-97.49,6.33-31.22,9.93-53.96,24.07-83.24Z"/>
  <path class="st2" d="M144,366c-6.94,38.11-12.3,76.99-15.98,113.69-1.27,12.69-.83,26.11-5.02,38.31,6.22-46.96,4.96-102.17,18.32-149.23.48-1.68.22-3.25,2.68-2.77Z"/>
  <path class="st2" d="M1265,902c-62.95.14-126.37-.03-189,0h189Z"/>
  <path class="st6" d="M72,827c-11.22-46.69-2.09-104.45,8-151,1.88.95.59,3.38.36,4.83-7.94,50.17-16.36,89.51-7.8,141.13.25,1.53,1.29,4.06-.56,5.04Z"/>
  <path class="st2" d="M565,387c4.31-.75,2.34,1.09,3.1,2.37,19.16,31.82,13.21,67-3.89,98.35-1.26,2.31-5.54,8.73-8.22,9.28,11.45-16.75,21.37-42.07,21.98-62.51.33-11.25-3.98-37.06-12.98-44.49-.06-.99.09-2.02,0-3Z"/>
  <path class="st2" d="M431,902c-57.65,0-115.35,0-173,0h173Z"/>
  <path class="st2" d="M1394,524c3.21-.57,1.69,1.61,1.97,3.48,7.51,50.42,28.08,99.76,36.59,150.49.26,1.53,1.29,4.06-.56,5.03-10.35-53.11-30.78-106.51-38-159Z"/>
  <path class="st2" d="M1065,215l6.64-4.86c36.76-17.4,70.95-18.62,110.91-17.14,1.92.07,4.01-1.02,3.45,2-11.43-.74-33.9-1.97-44.53-1.11-1.83.15-1.09,2.03-2.93,2.22-28.64,2.85-47.17,4.47-73.54,18.9Z"/>
  <path class="st2" d="M1110,859c-3.17.84-4.7,1.51-8.31.97-.7-.11-.61-1.76-1.32-1.9-16.79-3.26-32.87-7.54-51.08-11.66-7.65-1.73-16.27-2.01-23.79-4.43-3.06-.99-1.51-.99-.5-2.98,28.4,6.24,56.71,13.29,85,20Z"/>
  <path class="st2" d="M914,785c-8.6,6.43-16.94,13.28-26,19.02l1.48,2c26.21,7.33,52.8,13.22,79.21,19.79,1.65.41,3.67-.02,4.31,2.19-22.35-4.97-45.59-10.28-67.45-16.09-4.82-1.28-18.36-1.08-18.39-6.43-.03-4.37,2.98-3.31,4.83-5,5.28-4.82,12.32-11.09,18.44-15.04.95-.61,2.81-2.49,3.57-.44Z"/>
  <path class="st8" d="M145,951c-.18,0-1.63,1.01-3.38,1.07-8.51.3-17.12-.38-25.63-.08-.65,22.45.89,45.11,0,67.55-.08,1.92,1.03,4.01-2,3.45,1.95-8.57-2.55-69.46,0-72.01,1.1-1.1,26.94.84,31.01,0Z"/>
  <path class="st2" d="M328,192l-1.99-2.99c26.23-2.83,52.2-2.82,78.32,1.16,1.66.25,7.42,0,6.68,2.82-29.41-4.76-53.46-4.52-83-1Z"/>
  <path class="st14" d="M1186,681c-8.65,5.45-19.21,8.47-29,11h-155c-.2-.36-.95-.73-1-1h155.5c9.71-4.24,19.38-7.09,29.5-10Z"/>
  <path class="st2" d="M1157,693h-155,155Z"/>
  <path class="st0" d="M1157,692v1h-155c-.16-.12.15-.74,0-1h155Z"/>
  <path class="st0" d="M861,902c1,0,2,0,3,0,6.99,0,14.01,0,21,0h-146c40.65,0,81.35,0,122,0Z"/>
  <path class="st2" d="M1388,468c-3.35-29.53-6.28-58.63-11-88,2.98-1.92,1.59-.72,2.03,1.45,4.79,23.44,7.64,51.11,9.95,75.07.25,2.62,1.58,10.17-.99,11.49Z"/>
  <path class="st2" d="M1024,902c-22.91,0-46.74,1-70,1-.45-2.16.67-2.38,2.46-2.47,19.21-1.01,42.4.24,62.05.45,1.71.02,4.41-.62,5.48,1.02Z"/>
  <path class="st14" d="M1009,600c-2.37,19.54-2.59,39.11-3.99,58.42-.04.58-1.94.58-1.98,1.27-.3,5.26.19,10.59-.02,15.86-.08,1.92,1.03,4.01-2,3.45-.16-24.96,4.08-50.12,6-75,.03-.33-.02-.67,0-1l2-3Z"/>
  <path class="st2" d="M992,609l-4.97,83.32c-.22.87-2.15,1.39-3.03,1.68,4.12-13.8,1.63-29.67,4-44,.51-13.73,2.24-27.4,4-41Z"/>
  <path class="st13" d="M1126,715c-.12.09.28,1.46-.17,1.81-1.88,1.43-38.19-8.19-43.82-8.3l51.99-.49c-1.87,3.14-5.22,4.88-8,6.99,1.24-.27,4.04-4.75,5-6h-36l31,6Z"/>
  <path class="st0" d="M919,936c-43.32,0-86.68,0-130,0h130Z"/>
  <path class="st2" d="M1441,830c3-24.6,3.71-48.23,2-73,2.27.71,1.94,2.58,2.06,4.44,1.33,20.27,2.24,49.33-4.06,68.56Z"/>
  <path class="st2" d="M1001,679c0,1-.03,2,0,3-2.3-.75-2.03-2.44-1.94-4.33.56-11.56,1.96-23.16,2.85-34.25,1.07-13.18.84-26.9,5.08-39.42-1.92,24.88-6.16,50.04-6,75Z"/>
  <path class="st0" d="M1429,936c-25.97.28-52.02-.06-78,0-6.65.01-13.35-.01-20,0-1,0-2,0-3,0-.67,0-1.33,0-2,0h103Z"/>
  <path class="st2" d="M1074,902c-15.71,0-32.37,0-48,0,15.76-1.94,32.19-1.65,48,0Z"/>
  <path class="st2" d="M1300,902h80c-26.65.02-53.35-.01-80,0Z"/>
  <path class="st2" d="M129,902c-22.72.05-51.34,2.39-73,1-.56-3.02,1.53-1.94,3.45-2,10.06-.33,20.2.73,30.21-.61l39.34,1.62Z"/>
  <path class="st2" d="M1287,936c-3.69,3.13-11.08.94-15.49.9-16.09-.14-32.73.69-49.04.91-1.64.02-3.33-.6-4.47-1.81,22.98-.01,46.02.02,69,0Z"/>
  <path class="st2" d="M497,234c.4-1.68,4.23,1.75,4.49,2.01,25.03,25.87,42.93,58.63,52.52,93.49.36,1.32,1.94,3.57-.01,4.5-10.67-35.5-28.54-74.81-57-100Z"/>
  <path class="st2" d="M363,936c.57,2.92-1.55,2.13-3.44,1.98-18.49-1.48-40.13-1.71-58.76-.67-1.71.1-3.2,2.16-2.8-1.31,21.62,0,43.23,0,65,0Z"/>
  <path class="st2" d="M428,936c-9.69,2.81-22.15.87-32.48,1.05-4.02.07-8.97.82-13.03.99-1.89.08-4.08.87-3.49-2.04,16.32,0,32.68,0,49,0Z"/>
  <path class="st0" d="M1034,936c-20.65,0-41.35,0-62,0h62Z"/>
  <path class="st2" d="M296,936l-10.53,1.9-37.47-1.9c16,0,32.03,0,48,0Z"/>
  <path class="st2" d="M916,902c-10.32,0-20.68,0-31,0-6.99,0-14.01,0-21,0h52Z"/>
  <path class="st2" d="M1436,902c-13.98.08-28.02-.01-42,0h42Z"/>
  <polygon class="st2" points="133 936 128.48 937.76 100 936 133 936"/>
  <path class="st2" d="M239,936c-.86,2.69-2.12,1.42-3.76,1.37-9.13-.28-18.3,1.15-27.24-1.37,10.32,0,20.68,0,31,0Z"/>
  <path class="st2" d="M85,936c-1.16,1.35-2.62,1.61-4.31,1.64-6.64.14-20.89.12-26.69-1.64h31Z"/>
  <path class="st2" d="M1299,902c-10.98,0-22.02-.02-33,0,10.4-1.39,22.83-2.17,33,0Z"/>
  <path class="st2" d="M158,902c-8.99.03-18.01-.02-27,0,8.14-2.18,18.65-1.42,27,0Z"/>
  <path class="st2" d="M191,902c-8.99.01-18.01-.02-27,0,8.32-1.67,18.78-1.67,27,0Z"/>
  <path class="st2" d="M205,936c-5.72,2.8-14.85,1.58-21,0,6.99,0,14.01,0,21,0Z"/>
  <path class="st2" d="M1312,936c-6.83,2.38-15.96,1.45-23,0,7.65,0,15.35.01,23,0Z"/>
  <path class="st0" d="M971,936c-7.99,0-16.01,0-24,0,7.16-1.67,16.75-1.68,24,0Z"/>
  <path class="st2" d="M148,350c-1.41,4.97-2.9,9.94-4,15,.04-.21-1.29-1.41-.81-4.19.35-2.07,2.22-10.68,4.81-10.81Z"/>
  <path class="st2" d="M152,936c-3.31,2.09-8.46,1.45-12.36,1.48-1.64.01-4.34,1.38-3.64-1.48,5.32,0,10.68,0,16,0Z"/>
  <path class="st2" d="M1217,936c-5.48,1.96-12.58,2.27-18,0,5.99,0,12.01,0,18,0Z"/>
  <path class="st2" d="M1351,936c-5.81,1.68-14.27,1.67-20,0,6.65-.01,13.35.01,20,0Z"/>
  <path class="st2" d="M377,936c.39,3.07-.65,1.67-2.5,1.64-2.69-.04-8.39.95-9.5-1.64,3.99,0,8.01,0,12,0Z"/>
  <path class="st2" d="M176,936c-3.8,1.03-11.96,2.87-15,0,4.99,0,10.01,0,15,0Z"/>
  <path class="st2" d="M97,936c-2.88,2.11-7.28,2.66-10,0h10Z"/>
  <path class="st2" d="M1009,596c-.16,1.3.16,2.7,0,4l-2,3c.22-2.95-1.33-7.91,2-7Z"/>
  <path class="st2" d="M1393,902c-3.66,0-7.34,0-11,0,2.59-1.71,8.52-1.68,11,0Z"/>
  <path class="st0" d="M946,936c-3.66,0-7.34,0-11,0,2.48-1.68,8.41-1.71,11,0Z"/>
  <path class="st13" d="M331,760l7-.99c.26.78-.97.83-1,.99-1.99-.06-4.01.09-6,0Z"/>
  <path class="st2" d="M1424,827c2.58,2.37,5.41,4.58,8,7-3.32-1.03-6.85-3.7-8-7Z"/>
  <path class="st2" d="M159,936c-1.79,1.47-5.79,3.63-5,0,1.67,0,3.33,0,5,0Z"/>
  <path class="st2" d="M1433,835c6.79,5.06,4.65,2.19,7-3,2.61,1.41-1.25,6.67-2.48,6.78-1.9.18-3.52-2.91-4.52-3.78Z"/>
  <path class="st2" d="M1318,936c.57,3.58-2.41,1.88-4,0,1.33,0,2.67,0,4,0Z"/>
  <path class="st8" d="M152,951c-.68,1.57-4.32,1.57-5,0,1.66-.04,3.34.04,5,0Z"/>
  <path class="st2" d="M183,936c-.68,1.57-4.32,1.57-5,0,1.67,0,3.33,0,5,0Z"/>
  <path class="st2" d="M163,902c-1.33,0-2.67,0-4,0,2.13-1.34,4.69-3.42,4,0Z"/>
  <path class="st2" d="M1326,936c.67,0,1.33,0,2,0-.68,1.57-4.32,1.57-5,0,1,0,2,0,3,0Z"/>
  <path class="st7" d="M1130,778c-.3,1.09-1.25,1.39-2,2v-3c.67.34,1.33.68,2,1Z"/>
  <path class="st2" d="M1189,936c.61,2.97-2.56,3.13-2,0,.67,0,1.33,0,2,0Z"/>
  <path class="st2" d="M1422,825c-.91-.84-1.63-1.65-2-2l2,2Z"/>
  <path class="st2" d="M1195,936c-.83,0-2.17,0-3,0h3Z"/>
  <path class="st2" d="M56,887c-.55,2.08-3.15.19-4-1,1.33.34,2.67.67,4,1Z"/>
  <path class="st2" d="M244,936c-.67,0-1.33,0-2,0h2Z"/>
  <path class="st2" d="M1185,936c-.67,0-1.33,0-2,0h2Z"/>
  <path class="st3" d="M199,747l1,.99-3,1.01c.58-.5,1.13-1.28,2-2Z"/>
  <polygon class="st2" points="135 936 134 936 134.5 935.02 135 936"/>
  <path class="st2" d="M207,936c-.33,0-.67,0-1,0l.5-.98.5.98Z"/>
  <path class="st11" d="M1207.95,355.06c4.22,3.36,4.14.8,6.84,2.16.34.17,4.99,5.24,5.18,5.57,8.4,13.77,4.87,53.02-15.48,53.02-22.43,0-22.97-46.47-6.01-56.81,1.65-.15,9.06-4.25,9.46-3.93Z"/>
  <path class="st11" d="M1027.69,392.68c-6.75,4.59-16.15-1.16-19.45-7.42-6.09-11.55-3.29-45.12,12.31-48.2,20.58-4.07,21.7,28.29,17.17,41.16-.96,2.72-7.88,13.01-10.03,14.46Z"/>
  <path class="st11" d="M491,396c1.09,8.41-11.02,22.43-17.78,26.69-2.08,1.31-6.8,1.71-7.73,3.3s-.8,20.55-.04,23.07c3.5,11.52,20.63,8.78,28.49,3.38,5.94-4.08,8.23-12.24,16.47-11.34,5.93.65,4.56,11.15,2.31,14.62-.31.47-7.55,7.64-7.99,7.99-3.7,2.95-13.02,7.36-17.94,8.57-6.39,1.58-10.72,2.44-17.32.81-1.78-1.14-12.48-7.61-13.42-7.07-.17.1-.65,2.25-1.98,3.51-12.69,11.98-32.08,15.26-48.83,10.75-6.18-1.67-23.46-7.4-25.01-13.99-2.71-11.54,6.61-7.83,12.7-5.86,4.87,1.58,10.7,4.58,16.68,5.47,24.94,3.72,40.96-7.53,37.44-34.44-.15-1.15-.17-2.09-.94-3.06-1.08-1.36-25.99-6.38-29.87-8.63-3.12-7.09-13.01-12-10.23-21.77.18-.64,6.98-10.58,7.48-11.02,13.72-12.21,59.7-17.86,71.91-2.86,1.28,1.58,5.35,9.85,5.62,11.88Z"/>
  <path class="st11" d="M337.37,414.41c-.24.1-.28,1.37-1.08,1.56-1.75.42-5.73.21-7.56-.21-19.06-4.36-22.17-49.6-5.27-57.81,24.98-12.14,38.72,46.26,13.92,56.45Z"/>
  <path class="st11" d="M523.68,341.31c8.74,11.23,11.72,45.9-6.67,50.23-19.37,4.57-28.19-41.78-14.71-54.23.7-.65,2.77-.75,4.01-1.3.61-.27.72-1.78.84-1.82.43-.13,7.97.95,8.9,1.25.69.21,7.18,5.31,7.62,5.87Z"/>
  <polygon class="st0" points="208.5 719 209 719.5 208.5 720 208.5 719"/>
  <path class="st1" d="M612.63,786.68c.56-1.85,1.33-3.62,2.29-5.29,2.09-3.64,5.96-10.17,8.57-13.4,30.26-37.49,83.05-41.87,125.01-46.2,6.6-.68,15.72.56,22.99,1.22,38.47,3.52,89.74,11.94,94.52,58.98v1c.07,1.32,0,2.67,0,4-.11,96.98-156.15,105.18-220.38,71.88-29.98-15.54-31.69-32.59-34.2-61.93-.28-3.27.07-6.57,1.03-9.71l.17-.56ZM752.19,733.73c-.47-.13.23-1.65-.69-1.75s.38,1.82-1.93,2.11c-8.61,1.06-18.34-.63-26.8.19-31.5,3.06-120.53,33.34-89.01,78.45,25.97,37.16,110.77,35.91,149.65,25.19,27.91-7.7,90.82-38.07,61.09-74.93-16.6-20.58-56-27.96-78.97-28.94-3.95-.17-9.9.61-13.35-.32ZM842.55,826.58c2.05-2.36,6.2-6.43,5.95-9.57-55.17,46.83-149.07,52.07-211.78,18.02-.35-.19-6.63-7.63-5.75-2.52.44,2.55,16.97,13.92,20.33,15.67,47.76,24.83,153.99,21.25,191.24-21.61Z"/>
  <path class="st8" d="M273,854c.37.23,3.52,9.98,2,.01,1.29-.95,13.58.64,16.36.64,3.93,0,7.76-1.93,12.98-.65,1.15.28.23,2.02,1.16,2.02s0-1.75,1.16-2.02c9.33-2.23,26.95.76,37.05.73,12.23-.03,26.19-1.19,38.98-1.28,5.31-.04,23.76,1.55,26.76.63,1.43-.44-.5-3.39,1.54-3.07.63,3.87,10.37,3.41,14.51,3.78,2.92.26,4.58-2.17,8.48.74,2.88,2.15,1.6,6.33-.5,8.45-1.01,1.02-18.24.32-20.84-.03-.91-.12-.24-1.91-1.14-1.96-2.84-.54-.34,1.89-.49,2-1.24.98-28.77.54-31.58.1-2.45-.39-.58-4.57-4.85,0l-105.81-.38c-5-.85-8.41-5.18-9.77-9.71,2.55.57,12.72-.77,14,0ZM379.5,861v1l.5-.5-.5-.5Z"/>
  <path class="st8" d="M206.66,822.39c.48.18-.31,2.05,1.83,1.62,1.05-.21-1.81-2.92,3.05-3.09,3.6-.13,2.02,2.17,2.96,2.1s.03-1.74,1.12-1.98c5.88-1.31,36.81,1.05,38.39-.04-2.16-4.88,1.6,0,2.42.1,14.3,1.72,35.87-.11,51.11-.04,4.31.02,6.48.83,6.89.84,2.18.08,9.82-3.36,9.59,1.1,2.05-3.55,6.22-1.94,8.45,1.04,2.85,3.81,1.49,3.63-.36,5.85-.41.49.06,1.91-.12,2.13-.15.18-2.87-1.46-4.46-1.5-5.2-.12-10.91,2.3-14.08,2.48-.41.02-.4-1.86-1.12-2.01-1.96-.4-5,1.04-5.25.9-.36-.2.4-1.63-.59-1.89-.93-.24.38,1.96-1.97,2.13-5.86.43-14.65-1.16-20.98-1.16-26.24,0-60.15-2.26-85.13-.02-2.18.19-6.69,2.58-7.43,2.06-.27-.19,1.52-1.72.51-1.99-5.44-1.49-17.33,2.81-18.49-3.55-.97-5.31,2.07-5.94,6.5-6.44,7.92-.89,19.32-1.56,27.16,1.38Z"/>
  <path class="st8" d="M525.31,807.61c10.75,3.14,31.25-2.28,41.03,1.54,3.33,1.3.87,9.74.07,9.92-2.12-1.68-12.79.29-13.34-.09-.47-.33-.57-3.98-1.58-3.99s-.97,4.01-2.02,4.04c-1.14.03-2.2-1.6-2.99-1.61-4.43-.04-11.41,1.68-15.98,1.68-14.58.02-29.39-1.97-44.08-1.01-4-4.11-.9-.42-3.85,0-3.88.55-8.33-.8-11.91-.69-9,.25-20.86,1.69-29.11,1.49-2.81-.07-11.36-.68-13.66-1.31-2.7-.74-1.1-4.77-6.88-.58,1.96-3.68-2.12-5.45.14-8.86,6.24,1.21,14.35-1.29,20.2-.15,1.11.22.25,2.16,1.15,2.03.3-.04,2.22-5.7,1.99-.04,1.65-1.53,8.46-3,10.08-2.86.49.04.38,1.86,1.04,1.94,2.98.33,9.13-2,13.74-1.08,1.1.22.26,2.19,1.15,2.03,1-.18.22-1.68.59-1.89.26-.15,3.32,1.33,5.26.91.76-.17.59-2.15,1.13-2.04.63.14,1.78,1.75,3.13,1.73,12.1-.16,30.88.74,41.96-.63,2.19-.27,1.46-4.28,2.74-.48Z"/>
  <path class="st8" d="M1287.88,845.11c3.33,4.48-2.75,8.52-7.32,8.93-19.72,1.79-49.63-.05-70.03-.99-4.22-.19-18.64,2.41-18.52-5.58.03-2.14,3.34-5.21,3.49-1.48,3.98-5.23,13.87-1.97,19.97-1.96,8.75.02,17.7.53,26.18.6,6.06.05,44.11-2.39,46.24.47Z"/>
  <path class="st8" d="M1250.15,819.82c8.99.35,20.81-2.08,29.43-.91,2.3.31,1,2.29,1.93,2.11.99-.2-.03-1.76,1.09-2.01.45-.1,8.11-.65,9.1-.68,1.92-.05,3.51,1.37,4.94,1.35,7.55-.1,24.21-2.06,30.84-.64,4.15.89,4.48,8.06,3.54,8.97-1.35,1.3-21.23-.11-24.51-.08s-5.76,1.97-7.04,2.06c-.45.03-.07-1.97-1.89-2.07-11.55-.59-25.12.38-36.09,2.1-.26.04.62-.82-4-1.21-5.52-.47-2.5-2.96-3.67-4.64-.37-.53-7.04-1.62-4.8-6.15l1.14,1.82Z"/>
  <path class="st11" d="M629,708c-.33.01-.67-.02-1,0s-.67-.04-1,0l1.49-.99.51.99Z"/>
  <path class="st8" d="M1248.99,824.99c-.5.75-1.69-.92-.98-1.99.5-.75,1.69.92.98,1.99Z"/>
  <path class="st8" d="M866,783v-1c.08.82,0,.9,0,1Z"/>
  <polygon class="st8" points="1247.5 820 1248 820.5 1247.5 821 1247.5 820"/>
  <polygon class="st8" points="275.5 818 276 818.5 275.5 819 275.5 818"/>
  <polygon class="st8" points="570.5 814 571 814.5 570.5 815 570.5 814"/>
  <path class="st0" d="M606,902h-120c39.98,0,80.02-.02,120,0Z"/>
  <path class="st0" d="M712,902h-94c31.32.02,62.68,0,94,0Z"/>
  <path class="st0" d="M617,902c-2.2,1.69-7.78,1.7-10,0,3.32,0,6.68,0,10,0Z"/>
  <path class="st0" d="M942.87,786.16c.13.07-.05,1.49.86,1.78,3.55,1.13,6.74-.19,8.68.07,10.46,1.36,25.77,7.55,38.35,9.75,7.5,1.31,17.82,3.01,26.23,4.63,30.77,5.95,61.89,12.73,92.08,20.29,2.59,5.07-1.67,7.21-6.43,6.21-49.65-13.93-107.08-18.2-155.84-33.19-2.04-.63-8.47-2.39-8.77-4.31-.12-.75,3.16-6.16,4.84-5.23Z"/>
  <path class="st0" d="M975.79,767.25c.79.03,9.34,2.25,13.44,3.03,46.23,8.75,92.09,19.7,138.28,28.72,5.35,2.06,4.2,8.7-1.83,7.94l-158.75-33.58c-.68-5.79,3.98-6.31,8.87-6.11Z"/>
  <path class="st11" d="M948,708c-2,0-4,0-6,0,1.05-1.64,5.01-1.61,6,0Z"/>
  <path class="st11" d="M931,708c-1.33,0-2.67,0-4,0,.42-1.54,3.67-1.48,4,0Z"/>
  <path class="st11" d="M689,708c-1.33,0-2.67,0-4,0,.42-1.54,3.67-1.48,4,0Z"/>
  <path class="st11" d="M853,708c-1.33,0-2.67,0-4,0,.42-1.54,3.67-1.48,4,0Z"/>
  <path class="st11" d="M864,708c-1.33,0-2.67,0-4,0,.42-1.54,3.67-1.48,4,0Z"/>
  <path class="st11" d="M728,708c-1,0-2,0-3,0,.15-1.49,2.85-1.49,3,0Z"/>
  <path class="st11" d="M774,708c-1,0-2,0-3,0,.15-1.49,2.85-1.49,3,0Z"/>
  <path class="st11" d="M923,708c-1,0-2,0-3,0,.15-1.49,2.85-1.49,3,0Z"/>
  <path class="st11" d="M871,708c-.67,0-1.33,0-2,0l1.49-.99.51.99Z"/>
  <path class="st11" d="M826,708c-.67,0-1.33,0-2,0l1.49-.99.51.99Z"/>
  <path class="st11" d="M963,708c-.67,0-1.33,0-2,0l1.49-.99.51.99Z"/>
  <path class="st11" d="M651,708c-.67,0-1.33,0-2,0l1.49-.99.51.99Z"/>
  <path class="st11" d="M634,708c-.67,0-1.33-.01-2,0l1.49-.99.51.99Z"/>
  <path class="st3" d="M1126,715l-31-6h36c-.96,1.25-3.76,5.73-5,6Z"/>
  <path class="st3" d="M1118.99,481.01c3.65,3.51-11.72,9.19-13.75,9.74-7.82,2.11-17.08,2.68-25.49-1-2.16-.95-9.42-5.52-8.73-8.18.21-.79,13.67-7.5,14.56-7.54,3.07-.15,12.86,4.88,17.15,5.74,2.68.54,15.67.68,16.26,1.24Z"/>
  <path class="st12" d="M752.19,733.73c3.45.93,9.4.15,13.35.32,22.97.98,62.37,8.36,78.97,28.94,29.73,36.85-33.18,67.23-61.09,74.93-38.88,10.72-123.68,11.97-149.65-25.19-31.52-45.11,57.51-75.39,89.01-78.45,8.46-.82,18.19.87,26.8-.19,2.31-.28.97-2.21,1.93-2.11s.22,1.62.69,1.75ZM748,783.99c-.67-.73,7.45-15.48,8.68-15.89,6.63-2.19,15.73,14.34,26.71,6.79,13.89-9.55-18.99-18.76-20.42-20.36-2.22-2.49-.22-9.24-8.43-9.55-8.65-.32-9.13,6.89-12.22,7.83-3.44,1.04-12.01.66-16.53,1.47-33.97,6.14-39.03,30.16-2.79,37.73-1.91,2.43-6.27,14.57-7.99,15.55-5.52,3.14-23.34-14.97-34.39-7.46-15.07,10.24,26.2,19.31,27.26,21.03,1.19,1.94-1.38,8.14,5.86,9.68,8.67,1.84,11.11-5.49,15.98-6.6,7.03-1.6,14.54-.45,23.04-2.96,32.36-9.56,24.6-32.74-4.76-37.27Z"/>
  <path class="st10" d="M842.55,826.58c-37.25,42.86-143.48,46.44-191.24,21.61-3.37-1.75-19.89-13.13-20.33-15.67-.88-5.11,5.4,2.33,5.75,2.52,62.71,34.04,156.61,28.81,211.78-18.02.25,3.14-3.9,7.21-5.95,9.57Z"/>
  <polygon class="st3" points="379.5 861 380 861.5 379.5 862 379.5 861"/>
  <path class="st1" d="M748,783.99c29.36,4.53,37.12,27.7,4.76,37.27-8.5,2.51-16.02,1.36-23.04,2.96-4.88,1.11-7.31,8.44-15.98,6.6-7.24-1.54-4.67-7.73-5.86-9.68-1.05-1.72-42.32-10.78-27.26-21.03,11.05-7.51,28.87,10.59,34.39,7.46,1.72-.98,6.09-13.12,7.99-15.55-36.25-7.57-31.18-31.59,2.79-37.73,4.52-.82,13.09-.43,16.53-1.47,3.09-.94,3.58-8.15,12.22-7.83s6.21,7.06,8.43,9.55c1.43,1.6,34.31,10.81,20.42,20.36-10.98,7.55-20.08-8.98-26.71-6.79-1.22.4-9.35,15.16-8.68,15.89ZM735.01,809.99c6.89,1.57,20.4-7.31,9.73-12.23-5.54-2.55-7.63,7.88-9.73,12.23Z"/>
  <path class="st12" d="M735.01,809.99c2.1-4.35,4.19-14.78,9.73-12.23,10.67,4.92-2.84,13.8-9.73,12.23Z"/>
  <path class="st11" d="M1050,400c.18-1.51,2.45-7.41,3.35-8.64,7.26-9.89,23.63-12.11,35.18-11.39,12.85.8,40.06,7.79,43.46,22.04,3.03,12.7-6.47,20.59-17.04,25.46-3.77,1.74-19.44,5.33-20.05,6.18-4.19,5.83-.12,22.2,6.71,26.26,2.15,1.28,3.47.1,4.18.38,5.55,2.18,11.58,4.78,18.69,4.79,7.62.02,22.99-8.7,26.76.16,2.59,6.1-.11,5.39-1.54,7.76-3.59,5.95-7,5.97-11.24,9.96-12.74,11.99-14.51,18.7-34.22,21.77-19.57,3.05-33.77.81-46.2-15.5-2.12-2.78-3.09-7.13-6.03-10.44-4.21-4.73-21.5-14.81-16.78-23.58.25-.47,1.03-.78,1.94-1.09,3.3-1.12,6.87-.97,10.11.3,5.98,2.35,13.83,3.83,18.31,3.48,1.89-.15,8.66-5.3,9.2-7.63.64-2.74.64-18.79-.69-20.64-.61-.84-4.64-1.61-6.42-2.82-7-4.76-18.79-17.68-17.67-26.82ZM1118.99,481.01c-.59-.57-13.58-.7-16.26-1.24-4.3-.86-14.08-5.89-17.15-5.74-.89.04-14.35,6.75-14.56,7.54-.69,2.66,6.57,7.23,8.73,8.18,8.41,3.69,17.67,3.11,25.49,1,2.02-.55,17.39-6.23,13.75-9.74Z"/>
</svg>