<?xml version="1.0" encoding="UTF-8"?>
<svg id="Layer_1" xmlns="http://www.w3.org/2000/svg" version="1.1" viewBox="0 0 288.89 321.33">
  <!-- Generator: Adobe Illustrator 29.8.2, SVG Export Plug-In . SVG Version: 2.1.1 Build 3)  -->
  <defs>
    <style>
      .st0 {
        fill: #f5d49f;
      }

      .st1 {
        fill: #b28752;
      }

      .st2 {
        fill: #4b3719;
      }

      .st3 {
        fill: #feffff;
      }
    </style>
  </defs>
  <path class="st3" d="M2.85,250.49V5.52h280.96v59.99h-1c-.64-2.15-5.41-6.16-7.98-6.52L83.07,6.74l-8.59,1.92L3.85,250.49h-1Z"/>
  <path class="st3" d="M283.82,72.51v245.97h-75.99v-1c6.12-1.51,6.39-7.46,8.26-12.24,28.1-71.7,41.01-159.25,66.73-232.73h1Z"/>
  <path class="st3" d="M202.83,317.48v1H2.85v-62.99h1c.69,3.61,2.61,6.06,6,7.49l192.97,54.5Z"/>
  <path class="st0" d="M3.85,255.49h-1v-5h1c.2,1.57-.28,3.53,0,5Z"/>
  <g>
    <path class="st0" d="M207.83,317.48v1h-5v-1c1.51-.23,3.66.33,5,0Z"/>
    <path class="st2" d="M3.85,250.49L72.76,14.56c1.06-3.64,4.02-6.41,7.72-7.24l.07-.02c1.65-.37,3.37-.33,5,.12l189.28,51.57c2.56.36,7.34,4.37,7.98,6.52.22.73.18,1.79.09,2.91-.25,3.28-.94,6.51-2,9.62-24.47,72.32-37.43,157.29-64.82,227.2-1.87,4.78-2.14,10.73-8.26,12.24-1.34.33-3.49-.23-5,0L9.86,262.98c-3.4-1.43-5.31-3.88-6-7.49-.28-1.47.2-3.43,0-5ZM85.76,22.5L21.24,248.94l179.58,51.16,64.51-226.44L85.76,22.5Z"/>
    <g>
      <path class="st0" d="M85.76,22.5l179.58,51.16-64.51,226.44L21.24,248.94,85.76,22.5ZM164.41,90.95c-2.88-1.53-55.16-17.19-58.19-17.36-9.51-.55-13.04,8.13-4.39,13.43,2.71,1.66,54.73,17.21,57.74,17.26,8.45.15,12-9.53,4.84-13.34ZM215.56,102.79c.49,7.67,15.18,12.88,17.23,3.18s-8.42-10.98-9.48-13.4c-1.25-2.86,4.34-10.31-4.24-12.85-7.78-2.3-7.76,9.2-8.28,9.74-.73.76-14.62.42-18.9,7.87-12.22,21.29,21.63,27.86,20.71,33.68-2.11,13.25-21.93-15.54-28.82-3.08-5.89,7.93,7.45,12.85,8.6,15.6s-2.74,9.14,1.69,11.31c10,4.89,11.15-7.74,11.89-8.21,4-2.53,14.85,2.29,19.35-10.15,5.37-14.83-8.17-23.49-20.54-27.58-1.01-8.22,9.38-.89,8.08-7.4l2.72,1.29ZM172.54,157.19c1.58-1.2,2.74-5.1,2.31-7.12-.31-2.56-2.2-3.01-4.03-4.06-17.86-10.27-59.43-13.63-79.75-23.29-14.25,5.81-7.88,11.29,2.56,15.49,9.6,3.86,62.32,19.44,70.97,20.04,2.78.19,5.46.82,7.93-1.06ZM197.57,199.74c-4.7-5.32-101.69-26.35-115.51-32.05-11.6-.71-13.97,7.21-3.4,12.49,7.73,3.86,103.18,30.73,110.95,31.13,6.65.35,12.09-6.91,7.96-11.57ZM183.44,242.92c-18.99-1.81-107.02-36.47-118.85-33.23-5.19,1.42-6.96,10.22-.75,12.31,33.06,4.48,82.56,30.58,113.99,32.1,7.6.37,10.86-6.42,5.62-11.18Z"/>
      <path class="st1" d="M215.27,102.66h0c-.97-.46-2.04,0-2.56.94-1.43,2.57-8.81-1.68-7.95,5.3,12.37,4.09,25.91,12.75,20.54,27.58-4.51,12.44-15.35,7.62-19.35,10.15-.74.47-1.89,13.1-11.89,8.21-4.43-2.17-.59-8.69-1.69-11.31-1.16-2.75-14.5-7.67-8.6-15.6,6.89-12.45,26.72,16.33,28.82,3.08.93-5.82-32.93-12.39-20.71-33.68,4.28-7.45,18.17-7.11,18.9-7.87.52-.54.5-12.04,8.28-9.74,8.58,2.54,2.99,9.99,4.24,12.85,1.06,2.42,11.62,3.29,9.48,13.4-2.03,9.57-16.34,4.63-17.21-2.86-.02-.2-.14-.37-.31-.45Z"/>
      <path class="st1" d="M197.57,199.74c4.12,4.66-1.31,11.92-7.96,11.57-7.77-.41-103.22-27.27-110.95-31.13-10.57-5.28-8.2-13.2,3.4-12.49,13.82,5.7,110.8,26.73,115.51,32.05Z"/>
      <path class="st1" d="M183.44,242.92c5.25,4.76,1.98,11.55-5.62,11.18-31.43-1.52-80.92-27.62-113.99-32.1-6.21-2.1-4.43-10.89.75-12.31,11.83-3.24,99.86,31.43,118.85,33.23Z"/>
      <path class="st1" d="M172.54,157.19c-2.47,1.88-5.15,1.25-7.93,1.06-8.65-.6-61.37-16.18-70.97-20.04-10.45-4.2-16.82-9.68-2.56-15.49,20.33,9.66,61.89,13.02,79.75,23.29,1.82,1.05,3.72,1.5,4.03,4.06.43,2.02-.73,5.92-2.31,7.12Z"/>
      <path class="st1" d="M164.41,90.95c7.15,3.81,3.61,13.49-4.84,13.34-3.01-.05-55.03-15.61-57.74-17.26-8.65-5.3-5.12-13.99,4.39-13.43,3.03.18,55.31,15.83,58.19,17.36Z"/>
    </g>
  </g>
</svg>