<?xml version="1.0" encoding="UTF-8"?>
<svg id="Layer_1" xmlns="http://www.w3.org/2000/svg" version="1.1" viewBox="0 0 228 219.13">
  <!-- Generator: Adobe Illustrator 29.8.2, SVG Export Plug-In . SVG Version: 2.1.1 Build 3)  -->
  <defs>
    <style>
      .st0 {
        fill: #4b3719;
      }

      .st1 {
        fill: #29743a;
      }

      .st2 {
        fill: #57a856;
      }

      .st3 {
        fill: #fdfdfe;
      }
    </style>
  </defs>
  <path class="st3" d="M3.65,105.06V1.08h220.84v216.97H3.65v-103.99c7.9,121.47,185.16,138.61,215.39,20.04C257.07-15.08,13.8-51.02,3.65,105.06Z"/>
  <g>
    <path class="st0" d="M3.65,114.06c-.18-2.75-.18-6.25,0-9C13.8-51.02,257.07-15.08,219.04,134.11,188.81,252.67,11.55,235.54,3.65,114.06ZM163.93,33.73c-29.49-18.58-58.81-20.06-89.54-5.95C-13.08,67.94,14.18,194.48,110.09,199.03c77.33,3.67,126.37-92.34,74.89-147.92-7.34-7.92-12.17-11.79-21.04-17.38Z"/>
    <g>
      <path class="st2" d="M163.93,33.73c8.87,5.59,13.7,9.46,21.04,17.38,51.49,55.58,2.44,151.59-74.89,147.92C14.18,194.48-13.08,67.94,74.4,27.78c30.73-14.11,60.04-12.62,89.54,5.95ZM137.23,57.4c-1.77-.98-6.12-.59-7.21-2.3-2.45-3.84,2.77-20.07-11.72-16.84-6.47,1.44-6.91,13.01-7.83,13.7-.69.51-12.94.95-14.89,1.52-23.52,6.93-31.79,39.92-9.52,53.61,5.98,3.68,12.05,3.23,16.46,7.74-.8,3.77-1.88,29.15-2.94,30.24-4.9,5.04-16.21-13.46-17.91-14.58-9.59-6.31-15.83,2.88-13.63,12.65,1.65,7.34,16.65,17.12,23.55,19.41,1.87.62,5.77.31,6,.52.82.74-4.33,16.5,10.4,14.94,9.57-1.01,5.22-11.56,6.58-12.96.71-.73,16.22-1.33,20.22-3.02,2.26-.96,12.66-10.07,14.05-13.24,6.75-15.42,2.09-32.56-11.81-41.7-3.37-2.22-13.92-5.21-14.5-8.55-.4-2.33,2.78-21.95,5.06-23.03,4.92-1.61,6.19,6.24,7.51,7.58.3.31,6.91,4.37,7.33,4.46,11.89,2.63,15.53-16.64,5.1-23.95-1.9-1.33-8.25-5.07-10.28-6.19Z"/>
      <g>
        <path class="st1" d="M137.23,57.4c2.03,1.13,8.38,4.86,10.28,6.19,10.43,7.31,6.79,26.58-5.1,23.95-.42-.09-7.03-4.15-7.33-4.46-1.32-1.34-2.59-9.19-7.51-7.58-2.28,1.08-5.46,20.7-5.06,23.03.58,3.34,11.13,6.34,14.5,8.55,13.9,9.13,18.56,26.28,11.81,41.7-1.39,3.17-11.79,12.29-14.05,13.24-4,1.69-19.5,2.29-20.22,3.02-1.36,1.4,2.98,11.95-6.58,12.96-14.73,1.55-9.58-14.2-10.4-14.94-.22-.2-4.12.11-6-.52-6.9-2.29-21.9-12.08-23.55-19.41-2.2-9.77,4.04-18.96,13.63-12.65,1.7,1.12,13.02,19.62,17.91,14.58,1.06-1.09,2.14-26.47,2.94-30.24-4.41-4.51-10.47-4.06-16.46-7.74-22.28-13.69-14-46.68,9.52-53.61,1.94-.57,14.2-1.01,14.89-1.52.92-.69,1.36-12.26,7.83-13.7,14.49-3.22,9.28,13,11.72,16.84,1.09,1.71,5.44,1.32,7.21,2.3ZM107.57,71.06c-16.36.67-18.74,16.47-4.46,22.99,2.07.21,1.15-.22,1.7-1.25,1.15-2.14,3.64-20.84,2.75-21.74ZM128.24,143.74c6.75-6.33.65-19.22-7.16-22.68-2,.47-4.98,22.77-4.43,24.34,1.24,3.56,9.6.2,11.59-1.66Z"/>
        <path class="st2" d="M128.24,143.74c-1.98,1.86-10.34,5.21-11.59,1.66-.55-1.57,2.43-23.87,4.43-24.34,7.81,3.46,13.91,16.35,7.16,22.68Z"/>
        <path class="st2" d="M107.57,71.06c.88.91-1.61,19.6-2.75,21.74-.55,1.03.37,1.46-1.7,1.25-14.28-6.52-11.9-22.32,4.46-22.99Z"/>
      </g>
    </g>
  </g>
</svg>