<?xml version="1.0" encoding="UTF-8"?>
<svg xmlns="http://www.w3.org/2000/svg" version="1.1" xmlns:xlink="http://www.w3.org/1999/xlink" viewBox="0 0 512 512">
  <!-- Generator: Adobe Illustrator 29.8.2, SVG Export Plug-In . SVG Version: 2.1.1 Build 3)  -->
  <defs>
    <style>
      .st0 {
        fill: url(#linear-gradient2);
      }

      .st1 {
        fill: #519e61;
      }

      .st2 {
        fill: url(#linear-gradient1);
      }

      .st3 {
        fill: #d1a275;
      }

      .st4 {
        fill: #78be84;
      }

      .st5 {
        fill: #48301b;
      }

      .st6 {
        fill: #f6d8ae;
      }

      .st7 {
        fill: url(#linear-gradient);
      }
    </style>
    <linearGradient id="linear-gradient" x1="0" y1="256" x2="512" y2="256" gradientUnits="userSpaceOnUse">
      <stop offset="0" stop-color="#9f6fba"/>
      <stop offset="1" stop-color="#654894"/>
    </linearGradient>
    <linearGradient id="linear-gradient1" x1="114.49" y1="277.46" x2="114.49" y2="400.8" gradientUnits="userSpaceOnUse">
      <stop offset="0" stop-color="#d1a275"/>
      <stop offset="1" stop-color="#af8254"/>
    </linearGradient>
    <linearGradient id="linear-gradient2" x1="399.55" y1="260.5" x2="399.55" y2="401.83" gradientUnits="userSpaceOnUse">
      <stop offset="0" stop-color="#d1a275"/>
      <stop offset="1" stop-color="#af8254"/>
    </linearGradient>
  </defs>
  <g id="Layer_2">
    <rect class="st7" x="0" y="0" width="512" height="512" transform="translate(0 512) rotate(-90)"/>
  </g>
  <g id="Otters">
    <g>
      <path class="st1" d="M422,419c-1.49,1.66-3.93.93-6,1,1.39-.16,3.98-.72,6-1Z"/>
      <path class="st3" d="M257,184c-7.18-1.33-16.37-6.43-22.99-1.49-1.89,1.41-2.28,3.69-4.66,5.34-8.28,5.77-17.11,1-26.35,2.15-1.1-2.39-6.99-4.59-9.56-4.93-8.82-1.18-25.69,3.24-26.44,13.93-5.61.86-11.78,2.23-16.99,4.51-4.54,1.98-13.02,8.9-16.74,9.31-5.03.55-13.36-4.1-18.84-4.74-9.62-1.12-21.08,1.74-25.83,11-6.54,12.77,1.41,26.14,11.39,34.44,2.32,1.93,10.27,6.15,10.86,8.14,1.07,3.63-.2,11.25.25,15.75.59,5.88,3.55,11.69,3.91,17.59-6.82,3.77-.74,9.92,2.98,13.52,5.8,5.62,14.6,10.75,22.03,13.97,13.92,6.03,37.24,7.78,39.99,25.51-2.47-1.28-14.12-7.28-14.04-1.49.06,4.17,11.61,6.12,13.61,9.47.63,1.05-2.69,6.49-4.23,6.92-3.75,1.03-10.8-7.82-14.38-3.45-3.15,3.84,2.94,5.65,5.75,7.35,1.01.61,1.78-.2,1.3,2.2-27.73,7.41-63.93,1.92-85.5-18-2.02-1.87-7.82-9.65-9.12-9.94-3.32-.73-3.87,5.75-3.18,8.24s7.03,8.77,9.3,10.69c21.99,18.7,61.14,25.95,88.5,17.52,3.23-1,5.79-2.79,8.98-3.51,4.55,11.5,12.21,21.93,21.33,30.18.99.89,2.13.9,1.67,2.82-6.24.99-12.36,2.91-18.6,3.9-22.42,3.55-47.82,3.8-70.39,2.11l-.5-.99-.5.99c-32.76-2.62-72.82-9.18-79.76-47.74s16.33-89.96,21.67-130.85c2.45-18.76,1.91-39.3,6.33-57.67,1.72-7.14,5.27-14.39,7.79-21.3-.81-6.01-5.17-5.46-7.9-.8-1.37,2.35-1.3,5.54-3.62,7.29-13.44-4.19-12.52-25.85,1.19-28.72,8.62-1.8,13.53,8.23,15.68,7.75s7.51-10.86,9.62-13.44c20.53-25.19,62.78-38.87,94.51-34.53,48.37,6.62,75.63,44.75,81.48,91.02ZM215.7,162.17c-11.31,2.46-10,24.41,2.88,25.79,16.44,1.75,11.44-28.9-2.88-25.79ZM127.69,180.2c-12.2,2.78-8.3,28.99,6.61,25.61,7.33-1.66,7.5-9.96,6.47-16.09-1.11-6.62-6.19-11.1-13.08-9.53Z"/>
      <path class="st6" d="M257,184c2.58,20.38-3.06,36.71-16.01,52.49-2.19,2.67-8.35,6.78-8.06,10,.45,4.95,6.78.18,7.06.51l-.02,7.98c-35.18,4.69-63.91,35.26-68.98,70.02-15.56-7.52-31.77-9.42-45.49-21.01-3.44-2.91-6.23-7.71-10.51-8.99-.36-5.9-3.32-11.71-3.91-17.59-.45-4.5.82-12.12-.25-15.75-.59-1.99-8.53-6.21-10.86-8.14-9.99-8.3-17.94-21.67-11.39-34.44,4.75-9.27,16.21-12.12,25.83-11,5.49.64,13.82,5.29,18.84,4.74,3.73-.41,12.21-7.33,16.74-9.31,5.22-2.28,11.38-3.65,16.99-4.51-.62,8.79,10.92,11.62,17.98,12.04.15.65-.01,1.31.02,1.96l-.85.63c-.33,1.23-.33,2.51,0,3.74l.85.63c-.94,4.9-10.36,10.35-15,10-.14-.01-.63-.98-1.5-.98s-1.36.97-1.5.98c-3.95.3-8.63-3.42-12-5-.06-.03.28-.86-1-1-3.3-.35-5.28,4.44-3.53,7.04.45.68,7.22,4,8.54,4.46,9.78,3.4,19.34,1.56,27.49-4.5,1.21-.9,3.16-3.73,4.13-3.93,1.08-.22,2.27,1.64,3.88,1.94,4.74.87,12.6.3,16.83-2.16,3.46-2.01,12.77-10.39,8.67-14.35-4.59-4.45-8.04,5.27-12.06,7.97-6.11,4.1-15.15.41-15.78-7.22-.3-3.69,2.86-3.23,5.33-5.22,5.22-4.22,8.64-9.14,5.49-16.01,9.25-1.15,18.08,3.62,26.35-2.15,2.38-1.65,2.77-3.93,4.66-5.34,6.62-4.95,15.81.16,22.99,1.49Z"/>
      <path class="st6" d="M266,191c2.91.32,5.47-2.15,8.26-1.82,4.08.47,9.65,4.9,13.74,6.32,6.57,2.28,13.17,1.36,20,1.5-.77,5.41,2.02,10.13,6.63,12.87,1.37.82,6.07,1.97,6.26,2.24.93,1.31.24,7.32-1.37,8.93-8.36,8.35-12.11-2.67-16.19-3.89-5.05-1.51-5.21,3.26-2.8,6.81,3.07,4.51,6.52,5.83,11.45,7.05.17.04.57,1.17,1.37.94l.63-.94c1.43.01,3.07.21,4.44-.03,2.07-.36,4.07-2.41,5.89-1.87,1.03.3,3.64,3.12,5.97,4.1,2.1.88,5.95,1.93,8.18,1.86,3.89-.12,15.76-4.59,16.52-8.57.58-3.03.49-4.86-2.72-5.3-4.18-.57-4.02,1.75-6.93,3.65-7.24,4.72-17.86,2.63-17.39-7.34.32-6.73,1.88-4.83,6.32-6.74,3.64-1.56,7.88-3.58,8.73-7.77l.99-.49-.99-.51c.06-.61.06-1.38,0-2,15.39-.31,23.9,14.06,39.44,11.94,3.68-.5,7.88-2.59,12.04-2.96,11.49-1,24.03,1.95,28.04,13.99,2.26,6.8.93,12.49-2.34,18.71-4.25,8.09-11.3,10.6-18.05,15.95-.24,11.35-2,22.51-5.13,33.37-9.04,9.34-16.92,19-29.31,24.19l-22.68,8.81c-3.41-22.72-16.85-43.84-36.06-56.44-3.59-2.36-15.3-7.35-16.96-9.04-1.23-1.25-.82-3.34-1.92-5.08-2.61-4.09-10.9-10.08-14.58-14.42-10.59-12.51-11.96-20.07-10.48-36.02l1-12Z"/>
      <path class="st3" d="M243.99,124c-1.43,1.79-1.82-.78-2.22-1.29-4.07-5.2-8.32-8.95-12.27-13.7-.83-1-1.91-1.29-1.5-2.99,10.9-5.38,18.04,2.23,17.03,13.52-.08.84-.76,4.12-1.03,4.47Z"/>
      <path class="st3" d="M278,125l-10.99,15.99c-1.07-7.18,1.16-19.69,10.99-15.99Z"/>
      <path class="st3" d="M329,336l-.48-1.97c2.88.06,4.75-2.56,6.3-4.7l.18-11.33c.72,2.72,2.57,7.93,1.86,10.32-.64,2.12-6.2,5.86-7.86,7.68Z"/>
      <path class="st3" d="M189,357v-11c1.57,3.29,1.7,7.86,0,11Z"/>
      <path class="st3" d="M300,273c-5.81-2.82-12.29-5.44-18-8,4.81.23,10.07,3.01,14.37,5.13,1.42.7,3.06,1.2,3.63,2.87Z"/>
      <path class="st3" d="M185,370c-.07-.17-.72-.28-.85-.75-.75-2.63,1.01-4.1,1.85-6.25l.99.53c-.52,2.27-2.38,4-1.99,6.47Z"/>
      <path class="st3" d="M180,328c.13-1.28-.21-2.81,0-4,1.47.22,1.13,2.23.9,3.4l-.9.6Z"/>
      <path class="st3" d="M240,264c-.44.24-1.02,1.66-2.49,1l-.51-1c.93-.15,2.03.1,3,0Z"/>
      <path class="st3" d="M325,361c-.14.03-.27,1.13-.99,1.01,0-1.13-.48-2.92.99-3.01.11.61-.07,1.35,0,2Z"/>
      <path class="st3" d="M211,276c.6,2.39-1.29,2.09-3,3,.53-1.64,1.8-2.12,3-3Z"/>
      <path class="st3" d="M328,339l-.99-.51c.25-.34.83-.3.99-.49v1Z"/>
      <path class="st3" d="M111,413c-.33-.02-.67.03-1,0l.5-.99.5.99Z"/>
      <path class="st5" d="M203,190c3.16,6.88-.26,11.79-5.49,16.01-2.47,1.99-5.63,1.54-5.33,5.22.63,7.64,9.67,11.32,15.78,7.22,4.02-2.7,7.46-12.42,12.06-7.97,4.09,3.97-5.21,12.34-8.67,14.35-4.23,2.46-12.09,3.03-16.83,2.16-1.62-.3-2.81-2.16-3.88-1.94-.97.2-2.92,3.03-4.13,3.93-8.15,6.07-17.71,7.9-27.49,4.5-1.32-.46-8.08-3.78-8.54-4.46-1.74-2.6.23-7.39,3.53-7.04l1,1c3.37,1.58,8.05,5.3,12,5h3c4.64.35,14.06-5.1,15-10,.23-1.23.08-3.6,0-5-.03-.65.12-1.31-.02-1.96-7.05-.42-18.59-3.26-17.98-12.04.75-10.69,17.61-15.11,26.44-13.93,2.57.34,8.46,2.54,9.56,4.93Z"/>
      <path class="st5" d="M127.69,180.2c6.89-1.57,11.98,2.9,13.08,9.53,1.02,6.12.86,14.42-6.47,16.09-14.91,3.38-18.81-22.83-6.61-25.61Z"/>
      <path class="st5" d="M215.7,162.17c14.32-3.12,19.32,27.53,2.88,25.79-12.88-1.37-14.19-23.32-2.88-25.79Z"/>
      <path class="st5" d="M343,200c.06.62.06,1.39,0,2-.03.34.06.7,0,1-.85,4.19-5.08,6.21-8.73,7.77-4.44,1.9-6,.01-6.32,6.74-.47,9.96,10.15,12.06,17.39,7.34,2.91-1.9,2.75-4.22,6.93-3.65,3.21.44,3.3,2.27,2.72,5.3-.76,3.97-12.63,8.44-16.52,8.57-2.23.07-6.08-.98-8.18-1.86-2.33-.98-4.94-3.8-5.97-4.1-1.82-.54-3.82,1.51-5.89,1.87-1.36.24-3.01.04-4.44.03-.67,0-1.33,0-2,0-4.93-1.22-8.38-2.53-11.45-7.05-2.41-3.55-2.25-8.32,2.8-6.81,4.08,1.22,7.83,12.24,16.19,3.89,1.61-1.61,2.3-7.61,1.37-8.93-.19-.27-4.89-1.42-6.26-2.24-4.61-2.73-7.4-7.45-6.63-12.87,1.09-7.63,13.17-9.57,19.52-9.01,7.7.68,14.74,3.9,15.48,12.01Z"/>
      <path class="st5" d="M374.67,179.18c16.48-4.94,19.41,23.84,4.77,25.81-11.24,1.51-14.62-13.85-8.89-21.93.74-1.05,3.02-3.55,4.12-3.88Z"/>
      <path class="st5" d="M291.7,169.2c14.92-3.33,12.63,25.48-.15,23.78-10.09-1.34-7.92-21.98.15-23.78Z"/>
      <path class="st6" d="M185,218l-.85-.63c-.33-1.23-.33-2.51,0-3.74l.85-.63c.08,1.4.23,3.77,0,5Z"/>
      <path class="st6" d="M170,228h-3c.14-.01.63-.98,1.5-.98s1.36.97,1.5.98Z"/>
      <path class="st6" d="M155,223l-1-1c1.28.14.94.97,1,1Z"/>
      <path class="st3" d="M314,231l-.63.94c-.8.23-1.21-.9-1.37-.94.67,0,1.33,0,2,0Z"/>
      <path class="st3" d="M343,203c.06-.3-.03-.66,0-1l.99.51-.99.49Z"/>
      <circle class="st4" cx="258.37" cy="340.71" r="80.64"/>
      <path class="st3" d="M266,191c-.12-6.58-1.74-11.76-2.05-17.51-.58-10.91,14.15-35.11,21.52-43.52,34.21-39.02,105.94-32.2,139.05,5,1.62,1.82,5.51,8.48,7.15,8.93,3.14.86,6.04-3.74,8.62-5.11,17.09-9.1,28.76,21.5,9.74,25.2-.54-2.99-3.41-8.69-6.54-9.03-7.54-.84-.53,11.41.54,14.52,8.19,23.94,9.68,49.96,15.23,74.77,5.45,24.35,14.47,48.23,19.45,72.55,2.49,12.19,2.63,21.06,3.29,33.21l1,1c.64,7.17-1.78,20.23-4.51,26.99-9.25,22.9-33.69,29.5-56.08,32.92-29.21,4.46-63.72,4.29-92.82-1.01-4.53-.83-8.96-2.52-13.6-2.91,8.59-9.29,17.79-18.75,22.01-31,22.2,10.54,48.87,7.85,70.98-1.51,8.77-3.72,27.55-14.8,31.52-23.53,1.26-2.77-1.91-7.71-4.87-6.87-.65.18-7.21,8.24-9.15,9.91-18.88,16.22-47.47,22.44-71.75,18.76-1.78-.27-8.12-1.84-8.74-3.26,2.81-1.35,8.45-1.8,8.06-6-.6-6.43-10.94,1.32-13.63,1.53-3.41.27-6.84-4.68-6.39-7.98,2.15-1.63,15.87-5.66,16.01-6.62,1.34-8.93-12.9-2.51-17.05-.43,1.44-16.26,20.69-19.26,32.99-24.51,9.96-4.25,20.84-10.86,28-19,3.73-4.24,7.46-8.2,7.01-14.03-.22-2.87-2.43-1.03-4-1.47,3.13-10.86,4.89-22.02,5.13-33.37,6.75-5.35,13.8-7.86,18.05-15.95,3.27-6.22,4.6-11.91,2.34-18.71-4.01-12.05-16.55-14.99-28.04-13.99-4.17.36-8.37,2.45-12.04,2.96-15.54,2.12-24.05-12.25-39.44-11.94-.75-8.12-7.79-11.33-15.48-12.01-6.34-.56-18.43,1.38-19.52,9.01-6.82-.14-13.43.78-20-1.5-4.09-1.42-9.66-5.85-13.74-6.32-2.79-.32-5.36,2.14-8.26,1.82ZM291.7,169.2c-8.07,1.8-10.24,22.43-.15,23.78,12.78,1.7,15.07-27.1.15-23.78ZM374.67,179.18c-1.1.33-3.38,2.83-4.12,3.88-5.72,8.09-2.34,23.45,8.89,21.93,14.64-1.97,11.71-30.75-4.77-25.81Z"/>
      <path class="st5" d="M264,313v22c8.32,2.18,20.27,6.5,22.78,15.72,4.4,16.14-5.85,31.08-22.78,31.28-.52.45,2.04,9.9-4.51,11.01-9.81,1.67-5.35-9.89-6.55-10.95-.52-.46-10.76-3.08-13.3-4.2-5.22-2.31-13.11-5.7-9.5-12.22,5.43-9.81,14.73,5.4,22.86,3.36v-21.5c-3.85-3.09-9.22-3.87-13.35-6.65-14.12-9.5-10.84-33.58,4.8-39.89,1.71-.69,8.16-1.73,8.49-2.01.98-.86-3-13.89,7.4-10.77,4.46,1.34,3.01,7.49,3.78,10.22.4,1.42,7.82,3.16,9.89,4.11,1.89.86,6.76,3.7,7.87,5.13,3.06,3.94,2.03,10.01-3.34,10.44-6.15.5-8.15-5.89-14.53-5.06ZM253,312c-11.96.83-12.66,18.69,0,19v-19ZM264,369c14.14-.49,13.94-18.96,0-20v20Z"/>
      <path class="st5" d="M168,84c11.61.78,25.8,4.21,36.69,8.81,3.33,1.41,13.09,7.52,15.59,7.05s6.32-3.12,9.44-3.64c14.23-2.38,26.01,9.9,24.03,24.04-.56,3.99-4.72,11.43-4.72,13.24,0,1.91,3.15,5.56,4.17,7.81,2.27,5.03,4.15,10.43,5.81,15.69,7.62-5.39-.45-12.85-.71-19.67-.05-1.42.59-6.08.93-7.61,1.76-8.04,10.63-15.37,19.08-13.52,1.96.43,4.24,2.82,6.04,2.62,1.9-.21,7.97-6.12,10.32-7.67,25.71-16.98,60.39-19.52,89.35-10.67,15.98,4.88,36.07,16.29,47.02,29.02.63.74.89,2.26,1.07,2.39,1.13.8,10.88-4.02,14.3-3.86,1.8.08,6.77,1.65,8.6,2.45,17,7.43,18.18,36.31-.97,41.57,6.11,24.63,8.72,50.15,14.43,74.97,7.64,33.16,21.13,64.49,22.52,98.98.17,4.1.24,8.93,0,13-2.49,41.74-32.1,54.86-69,60-2.02.28-4.61.84-6,1-28.48,3.3-62.14,3.42-90.37-2.13-4.39-.86-15.37-4.91-18.18-4.83-1.6.05-7.26,4.45-9.41,5.5-9.53,4.66-15.59,5.86-25.57,8.34-6.27,1.06-13.14,1.48-19.47,1.12-9.12-.51-22.3-4.07-30.69-7.81-3.06-1.37-11.7-7.12-13.79-7.13-2.41-.02-13.35,3.91-17.28,4.68-29.31,5.75-58.05,5.17-87.36,2.67-4.83-.41-5.97-.69-7.14-.95-1.46-.32-3.19-.37-4.74-.46-36.59-2.07-68.46-21.8-71-61-.32-4.95-.19-10.99,0-16,1.29-33.24,15.06-64.3,20.72-96.78,3.47-19.92,3.28-40.07,6.37-59.63.8-5.09,2.21-10.18,3.95-15.03-5.37-2.62-11-7.02-13.55-12.55-4-8.69-2.22-20.52,5.01-27.01,5.45-4.9,11.58-6.92,18.94-5.93,2.24.3,7.21,3.07,7.98,2.89.84-.2,4.82-6.58,6.06-7.98,18.09-20.25,50.8-34.18,77.52-35.98,4.19-.28,9.81-.28,14,0ZM110,413c.33.03.67-.02,1,0,22.57,1.7,47.98,1.44,70.39-2.11,6.24-.99,12.37-2.91,18.6-3.9.46-1.92-.69-1.93-1.67-2.82-9.12-8.24-16.78-18.68-21.33-30.18-3.19.72-5.75,2.52-8.98,3.51-27.36,8.43-66.51,1.18-88.5-17.52-2.27-1.93-8.6-8.18-9.3-10.69s-.15-8.97,3.18-8.24c1.3.29,7.1,8.07,9.12,9.94,21.57,19.92,57.76,25.42,85.5,18,.47-2.39-.29-1.59-1.3-2.2-2.81-1.7-8.9-3.51-5.75-7.35,3.58-4.36,10.63,4.49,14.38,3.45,1.55-.43,4.86-5.86,4.23-6.92-1.99-3.35-13.54-5.3-13.61-9.47-.09-5.79,11.57.2,14.04,1.49-2.75-17.73-26.07-19.48-39.99-25.51-7.43-3.22-16.23-8.36-22.03-13.97-3.72-3.6-9.8-9.76-2.98-13.52,4.27,1.28,7.06,6.08,10.51,8.99,13.71,11.58,29.93,13.48,45.49,21.01,5.08-34.77,33.8-65.33,68.98-70.02l.02-7.98c-.28-.33-6.62,4.44-7.06-.51-.29-3.21,5.87-7.33,8.06-10,12.95-15.78,18.58-32.11,16.01-52.49-5.85-46.26-33.11-84.4-81.48-91.02-31.73-4.34-73.99,9.34-94.51,34.53-2.11,2.59-7.45,12.96-9.62,13.44s-7.07-9.56-15.68-7.75c-13.71,2.87-14.63,24.53-1.19,28.72,2.33-1.75,2.25-4.94,3.62-7.29,2.72-4.66,7.09-5.21,7.9.8-2.52,6.91-6.08,14.16-7.79,21.3-4.42,18.38-3.88,38.91-6.33,57.67-5.34,40.88-28.87,90.88-21.67,130.85s47,45.12,79.76,47.74ZM243.99,124c.28-.34.96-3.63,1.03-4.47,1.01-11.29-6.12-18.91-17.03-13.52-.41,1.71.66,1.99,1.5,2.99,3.95,4.75,8.2,8.5,12.27,13.7.4.51.79,3.08,2.22,1.29ZM266,191c.06,3.14-.2,4.16-.5,7.2-.01.12-.31,2.72-.5,4.8-1.48,15.96-.11,23.52,10.48,36.02,3.68,4.34,11.96,10.33,14.58,14.42,1.11,1.74.7,3.83,1.92,5.08,1.66,1.69,13.37,6.68,16.96,9.04,19.22,12.6,32.65,33.72,36.06,56.44l22.68-8.81c12.39-5.19,20.28-14.85,29.31-24.19,1.57.43,3.78-1.41,4,1.47.45,5.83-3.28,9.79-7.01,14.03-7.16,8.14-18.04,14.75-28,19-12.3,5.25-31.55,8.24-32.99,24.51,4.15-2.08,18.38-8.5,17.05.43-.14.95-13.86,4.98-16.01,6.62-.44,3.3,2.98,8.25,6.39,7.98,2.69-.21,13.02-7.97,13.63-1.53.39,4.19-5.25,4.64-8.06,6,.62,1.42,6.96,2.99,8.74,3.26,24.28,3.68,52.86-2.54,71.75-18.76,1.94-1.67,8.5-9.72,9.15-9.91,2.96-.84,6.13,4.1,4.87,6.87-3.98,8.73-22.75,19.81-31.52,23.53-22.1,9.37-48.78,12.05-70.98,1.51-4.22,12.24-13.42,21.7-22.01,31,4.63.39,9.06,2.08,13.6,2.91,29.1,5.3,63.61,5.47,92.82,1.01,22.39-3.42,46.83-10.02,56.08-32.92,2.73-6.76,5.15-19.82,4.51-26.99-.09-1.01-1-.93-1-1-.66-12.15-.8-21.02-3.29-33.21-4.98-24.32-14-48.2-19.45-72.55-5.55-24.81-7.05-50.82-15.23-74.77-1.06-3.11-8.08-15.36-.54-14.52,3.13.35,6,6.05,6.54,9.03,19.02-3.7,7.35-34.3-9.74-25.2-2.58,1.37-5.48,5.97-8.62,5.11-1.64-.45-5.53-7.11-7.15-8.93-33.11-37.2-104.84-44.02-139.05-5-7.37,8.41-22.1,32.6-21.52,43.52.3,5.75,1.92,10.93,2.05,17.51ZM278,125c-9.83-3.7-12.07,8.82-10.99,15.99l10.99-15.99ZM258.99,226c-1.66-1.85-2.57,2.48-3.14,3.33-5.3,7.94-11.87,13.54-5.39,23.48,9.01-2.16,18.51-.22,27.54,1.18-6.13-6.99-12.9-13.92-17.2-22.29-.67-1.31-1.59-5.46-1.81-5.7ZM242.15,262.84c-.97.1-4.23,1.02-5.15,1.16-8.02,1.27-19.43,7.2-26,12-1.2.88-.64.36-3.55,2.38-10.31,7.72-24.97,31.39-27.45,45.62-.21,1.19-.61,1.37-.74,2.66-.01.13-.67,2.03-.18,3.62s4.41,4.29,5.76,6.38,2.18,4.6,3.17,7.07c.65,1.62.98,3.36.98,5.11v4.57c0,2.25-.52,4.47-1.56,6.46-.49.93-.95,1.9-1.44,3.14-.84,2.14-2.6,3.62-1.85,6.25.13.47.6,1.31.67,1.48,19.23,48.1,83.08,64.24,123.2,30.79,7.46-6.22,19.66-20.31,22.57-29.51.27-.85.31-1.16.01-2.04s-3.93-7.26-4.68-8.43c-.23-.36-.25-.59-.55-1.22-.21-.76-.27-.71-.38-1.32-1.37-7.72-.91-12.95,3-20l.8-1.61c.71-.86,1.3-1.71,1.4-1.81,1.66-1.82,6.02-5.13,6.66-7.25.72-2.39-1.14-7.6-1.86-10.32-4.72-17.94-16.52-30.55-30.29-42.5-.57-1.67-6.92-4.67-8.34-5.37-4.3-2.12-14.78-6.18-14.78-6.18-10.28-2.85-27.99-3.16-39.44-1.12Z"/>
    </g>
    <path class="st2" d="M86.51,232.48c1.35,8.12,6.98,15.65,13.47,21.04,2.32,1.93,10.27,6.15,10.86,8.14,1.07,3.63-.2,11.25.25,15.75.59,5.88,3.55,11.69,3.91,17.59-6.82,3.77-.74,9.92,2.98,13.52,5.8,5.62,14.6,10.75,22.03,13.97,13.92,6.03,37.24,7.78,39.99,25.51-2.47-1.28-14.12-7.28-14.04-1.49.06,4.17,11.61,6.12,13.61,9.47.63,1.05-2.69,6.49-4.23,6.92-3.75,1.03-10.8-7.82-14.38-3.45-3.15,3.84,2.94,5.65,5.75,7.35,1.01.61,1.78-.2,1.3,2.2-27.73,7.41-63.93,1.92-85.5-18-2.02-1.87-7.82-9.65-9.12-9.94-3.32-.73-3.87,5.75-3.18,8.24s7.03,8.77,9.3,10.69c21.99,18.7,61.14,25.95,88.5,17.52,3.23-1,5.79-2.79,8.98-3.51,4.55,11.5,12.21,21.93,21.33,30.18.99.89,2.13.9,1.67,2.82-6.24.99-12.36,2.91-18.6,3.9-22.42,3.55-47.82,3.8-70.39,2.11l-.5-.99-.5.99c-32.76-2.62-72.82-9.18-79.76-47.74s16.33-89.96,21.67-130.85"/>
    <path class="st0" d="M459.26,244.24c5.45,24.35,14.47,48.23,19.45,72.55,2.49,12.19,2.63,21.06,3.29,33.21l.4.08.33.2.2.36.07.36c.64,7.17-1.78,20.23-4.51,26.99-9.25,22.9-33.69,29.5-56.08,32.92-29.21,4.46-63.72,4.29-92.82-1.01-4.53-.83-8.96-2.52-13.6-2.91,8.59-9.29,17.79-18.75,22.01-31,22.2,10.54,48.87,7.85,70.98-1.51,8.77-3.72,27.55-14.8,31.52-23.53,1.26-2.77-1.91-7.71-4.87-6.87-.65.18-7.21,8.24-9.15,9.91-18.88,16.22-47.47,22.44-71.75,18.76-1.78-.27-8.12-1.84-8.74-3.26,2.81-1.35,8.45-1.8,8.06-6-.6-6.43-10.94,1.32-13.63,1.53-3.41.27-6.84-4.68-6.39-7.98,2.15-1.63,15.87-5.66,16.01-6.62,1.34-8.93-12.9-2.51-17.05-.43,1.44-16.26,20.69-19.26,32.99-24.51,9.96-4.25,20.84-10.86,28-19,3.73-4.24,7.46-8.2,7.01-14.03-.22-2.87-2.43-1.03-4-1.47,3.13-10.86,4.89-22.02,5.13-33.37,6.75-5.35,13.8-7.86,18.05-15.95"/>
  </g>
</svg>